/* XPM */
static char *result[] = {
/* columns rows colors chars-per-pixel */
"60 60 8 1 ",
"  c #5F3D31",
". c #613C2F",
"X c #683F33",
"o c #693F34",
"O c #6D4034",
"+ c #6E4035",
"@ c #734136",
"# c #734636",
/* pixels */
".@@@@@@@@@@@@@@@@@@@@@@@@@@@@@@@@@@@@@@@@@@@@@@@@@@@@@@@@@@@",
".@@@@@@@@@@@@@@@@@@@@@@@@@@@@@@@@@@@@@@@@@@@@@@@@@@@@@@@@@@@",
".@@@@@@@@@@@@@@@@@@@@@@@@@@@@@@@@@@@@@@@@@@@@@@@@@@@@@@@@@@@",
"..@@@@@@@@@@@@@@@@@@@@@@@@@@@@@@@@@@@@@@@@@@@@@@@@@@@@@@@@@@",
".@@@@@@@@@@@@@@@@@@@@@@@@#@@@@@@@@@@@@@@@@@@@@@@@@@@@@@@@@@@",
".@@@@@@@@@@@@@@@@@@@@@@@@@@@@@@@@@@@@@@@@@@@@@@@@@@@@@@@@@@@",
"@.@@@@@@@@@@@@@@@@@@@@@@@@@@@@@@@@@@@@@@@@@@@@@@@@@@@@@@@@@@",
".@@@@@@@@@@@@@@@@@@@@@@@@@@@@@@@@@@@@@@@@@@@@@@@@@@@@@@@@@@@",
"..@@@@@@@@@@@@@@@@@@@@@@@@@@@@@@@@@@@@@@@@@@@@@@@@@@@@@@@@@@",
".@@@@@@@@@@@@@@@@@@@@@@@@@@@@@@@@@@@@@@@@@@@@@@@@@@@@@@@@@@@",
".@@@@@@@@@@@@@@@@@@@@@@@@@@@@@@@@@@@@@@@@@@@@@@@@@@@@@@@@@@@",
".@@@@@@@@@@@@@@@@@@@@@@@@@@@@oooooo@@@@@@@@@@@@@@@@@@@@@@@@@",
".@@@@@@@@@@@@@@@@@@@@@@@@@@@oooooooo@@@@@@@@@@@@@@@@@@@@@@@@",
".@@@@@@@@@@@@@@@@@@@@@@@@@@@ooooooooo@@@@@@@@@@@@@@@@@@@@@@@",
"@XXXXX#@@@@#@@@@@@@@@@@@@@@oooooooooo@@@@@@@@@@@@@@@@@@@@@@@",
".@@@XXXX@@@@@@@@@@@@@@@@@@@oooo   ooo@@@@@@@@@@@@@@@@@@@@@@@",
"@@@X@@@@@@##@@@@@@@@@@@@@@ooo       o@@@@@@@@@@@@@@@@@@@@@@@",
".@@@@@@@@@@@@@@@@@@@@@@@@@oo       o@@@@@@@@@@@@@@@@@@@@@@@@",
"@@@@@@@@@@@@@@@@@@@@@@@@@@oo        @@@@@@@@@@@@@@@@@@@@@@@@",
".@@@@@@@@@@@@@@@@@@@@@@@@+         o@@@@@@@@@@@@@@@@@@@@@OO@",
"@@@@@@@@@@@@@@@@@@@@@@@@@@o       o@@@@@@@@@@@@@@@@@@@@@@@@@",
".@@@@@@@@@@@@@@@@@@@@@@@@+@ooooooo@@@@@@@@@@@@@@@@@@@@@@@@@@",
"..@@@@@@@@@@@@@@@@@@@@@@+@+@+@@@@@@@@@@@@@@@@@@@@@@@@@@@@@@@",
".@@@@@@@@@@@@@@@@@@@@@@@@+@+@+@@@@@@@@@@@@@@@@@@O@@@@@@@@@@@",
"..@@@@@@@@@@X@@@@@@@@@@@@@+@+@@@@@@@@@@@@@@OO@@@@@@@@@@@@@@@",
".@@@@@@@@@@@@@@@@@@@@@@@@@@@@@@@@@@@@@@@@@OOOO@@OOO@@@@@@@@@",
"..@@@@@@@@@@@@@@@@@@@@@@@@@@@@@@@@@@@@@@@@OOOO@@@@@@@@@@@@@@",
".@@@@@@@@@@@@@@@@@@@@@@@@@@@@@@@@@@@@@@@@@@OO@@@@@@@@@@@@@@@",
"@.@@@@@@@@@@@@@@@@@@@@@@@@@@@@@@@@@@@@@@@@@@@@@@@@@@@@@@@@@@",
".@@@@@@@@@@@@@@@@@@@@@@@@@@@@@@@@@@@@@@@@@@@@@@@@@@@@@@@@@@@",
"@.@@@@@@@@@@@@@@@@@@@@@@@@@@@@@@@@@@@@@@@@@@@@@@@@@@@@@@@@@@",
".@@@@@@@@@@@@@@@@@@@@@@@@@@@@@@@@@@@@@@@@@@@@@@@@@@@@@@@@@@@",
"@.@@@@@@@@@@@@@@@@@@@@@@@@@@@@@@@@@@@@@@@@@@@@@@@@@@@@@@@@@@",
".@@@@@@@@@@@@@@@@@@@@@@@@@@@@@@@@@@@@@@@@@@@@@@@@@@@@@@@@@@@",
".@@@@@@@@@@@@@@@@@@@@@@@@@@@@@@@@@@@@@@@@@@@@@@@@@@@@@@@@@@@",
"@@@@@@@@@@@@@@@@@@@@@@@@@@@@@@@@@@@@@@@@@@@@@@@@@@@@@@@@@@@@",
".@@@@@@@@@@@@@@@@@@@@@@@@@@@@@@@@@@@@@@@@@@@@@@@@@@@@@@@@@@@",
"@@@@@@@@@@@@@@@@@@@@@@@@@@@@@@@@@@@@@@@@@@@@@@@@@@@@@@@@@@@@",
".@@@@@@@@@@@@@@@@@@@@@@@@@@@@@@@@@@@@@@@@@@@@@@@@@@@@@@@@@@@",
"@@@@@@@@@@@@@@@@@@@@@@@@@@@@@@@@@@@@@@@@@@@@@@@@@@@@@@@@@@@@",
".@@@@@@@@@@@@@@@@@@@@@@@@@@@@@@@@@@@@@@@@@@@@@@@@@@@@@@@@@@@",
"@@@@@@@@@@@@@@@@@@@@@@@@@@@@@@@@@@@@@@@@@@@@@@@@@@@@@@@@@@@@",
"@@@@@@@@@@@@@@@@@@@@@@@@@@@@@@@@@@@@@@@@@@@@@@@@@@@@@@@@@@@@",
".@@@@@@@@@@@@@@@@@@@@@@@@@@@@@@@@@@@@@@@@@@@@@@@@@@@@@@@@@@@",
"@@@@@@@@@@@@@@@@@@@@@@@@@@@@@@@@@@@@@@@@@@@@oooo@@@@@@@@@@@@",
"@@@@@@@@@@@@@@@@@@@@@@@@@@@@@@@@@@@@@@@@@@o    ooo@@@@@@@@@@",
".@@@@@@@@@@@@@@@@@@@@@@@@@@@@@@@@@@@@@@@oo      @@@  ooo@@@@",
"@.@@@@@@@@@@@@@@@@@@@@@@@@@@@@@@@@@@@@ooo       oo    ooo@@@",
".@@@@@@@@@@@@@@@@@@@@@@@@@@@@@@@@@@oooooo       ooo  o@@@@@@",
"..@@@@@@@@@@@@@@@@@@@@@@@@@@@@@@@@@@@@@oo        oo@@@@@@@@@",
".@@@@@@@@@X@#@@@@@@@@@@@@@@@@@@@@@@@@@@ooo      oooo@@@@@oo@",
"..@@@@@@@@@@@@@@@@@@@@@@@@@@@@@@@@@@@@@@@@oo  oooooo@@@@@@@@",
".@@@@@@@@@@@@@@@@@@@@@@@@@@@@@@@@@@@@@@@@@@@@o@@@@@@@@@@@@@@",
"..@@@@@@@@@@@@@@@@@@@@@@@@@@@@@@@@@@@@@@@@@@@@@@@@@@@@@@@@@@",
".@@@@@@@@@@@@@@@@@@@@@@@@@@@@@@@@@@@@@@@@@@@@@@@@@@@@@@@@@@@",
"..@@@@@@@@@@@@@@@@@@@@@@@@@@@@@@@@@@@@@@@@@@@@@@@@@@@@@@@@@@",
".@@@@@@@@@@@@@@@@@@@@@@@@@@@@@@@@XX@@@@@@@@@@@@@@@@@@@@@@@@@",
"@@@@@@@@@@@@@@@@@@@@@@@@@@@@XXXXX@@X@@XXX@@@@@@@@@@@@@@@OOOO",
".@@@@@@@@@@@@@@@@@@@@@@@@@@@@@@@XXX@@@@@@@@@@@@@@@@@@@@@@@@@",
"@@@@@@@@@@@@@@@@@@@@@@@@@@@@@@@@@@@@@@@@@@@@@@@@@@@@OOOOOOOO"
};
