/* XPM */
static char *result[] = {
/* columns rows colors chars-per-pixel */
"60 60 239 2 ",
"   c #272120",
".  c #282120",
"X  c #292120",
"o  c #282220",
"O  c #292220",
"+  c #2A2320",
"@  c #2A2321",
"#  c #2B2321",
"$  c #2C2320",
"%  c #2E2320",
"&  c #2E2321",
"*  c #2C2421",
"=  c #2C2422",
"-  c #2D2422",
";  c #2D2423",
":  c #2E2422",
">  c #2F2422",
",  c #2E2523",
"<  c #2F2523",
"1  c #2F2524",
"2  c #2F2624",
"3  c #302522",
"4  c #312522",
"5  c #322522",
"6  c #332522",
"7  c #322523",
"8  c #322623",
"9  c #332623",
"0  c #342522",
"q  c #342523",
"w  c #342622",
"e  c #302724",
"r  c #312625",
"t  c #302725",
"y  c #312725",
"u  c #322724",
"i  c #322725",
"p  c #332725",
"a  c #322726",
"s  c #332726",
"d  c #342726",
"f  c #312825",
"g  c #322825",
"h  c #332825",
"j  c #332826",
"k  c #342826",
"l  c #352826",
"z  c #342926",
"x  c #362826",
"c  c #362926",
"v  c #372927",
"b  c #362A27",
"n  c #372A27",
"m  c #392822",
"M  c #3D2823",
"N  c #3F2A23",
"B  c #3A2825",
"V  c #3A2925",
"C  c #3A2A25",
"Z  c #382A27",
"A  c #3E2824",
"S  c #3C2926",
"D  c #372B28",
"F  c #382A29",
"G  c #3A2B28",
"H  c #3A2B29",
"J  c #382C29",
"K  c #392C29",
"L  c #3A2C28",
"P  c #3B2C29",
"I  c #3B2D2B",
"U  c #3B2E2A",
"Y  c #3C2C2A",
"T  c #3C2D2A",
"R  c #3D2D2A",
"E  c #3D2D2B",
"W  c #3D2E2A",
"Q  c #3E2F2A",
"!  c #3E2E2B",
"~  c #3F2F2B",
"^  c #3E2F2C",
"/  c #452B22",
"(  c #422924",
")  c #412A24",
"_  c #412B26",
"`  c #462B25",
"'  c #422C24",
"]  c #4B2C24",
"[  c #4A2D25",
"{  c #492D27",
"}  c #4A2C26",
"|  c #4B2D26",
" . c #4B2D27",
".. c #4A2E26",
"X. c #4D2D24",
"o. c #4C2D26",
"O. c #4D2E26",
"+. c #4E2E27",
"@. c #442D28",
"#. c #532D25",
"$. c #502F26",
"%. c #502E27",
"&. c #512E27",
"*. c #532F27",
"=. c #542E26",
"-. c #552E26",
";. c #552F26",
":. c #542F27",
">. c #512F28",
",. c #40302B",
"<. c #40302C",
"1. c #41302C",
"2. c #41302D",
"3. c #42312C",
"4. c #42312D",
"5. c #43312D",
"6. c #43322D",
"7. c #40312E",
"8. c #43312E",
"9. c #43322E",
"0. c #44322E",
"q. c #44322F",
"w. c #45332F",
"e. c #46342F",
"r. c #4B302A",
"t. c #523027",
"y. c #573027",
"u. c #563329",
"i. c #53332D",
"p. c #583028",
"a. c #5A3229",
"s. c #5B3229",
"d. c #59332B",
"f. c #5C332A",
"g. c #5E342B",
"h. c #5A362F",
"j. c #583A2F",
"k. c #5C382F",
"l. c #483532",
"z. c #493632",
"x. c #4B3733",
"c. c #4C3833",
"v. c #4C3834",
"b. c #4C3835",
"n. c #4D3835",
"m. c #4E3A35",
"M. c #4E3A36",
"N. c #503B35",
"B. c #503A36",
"V. c #513B36",
"C. c #513B37",
"Z. c #523B37",
"A. c #523C37",
"S. c #5F3D31",
"D. c #523B38",
"F. c #523C38",
"G. c #533D39",
"H. c #523E39",
"J. c #543D38",
"K. c #553D39",
"L. c #553E38",
"P. c #543E39",
"I. c #573E3A",
"U. c #573F3A",
"Y. c #583F3A",
"T. c #583F3B",
"R. c #613C2F",
"E. c #613931",
"W. c #623A31",
"Q. c #633A31",
"!. c #623A32",
"~. c #633A32",
"^. c #643A31",
"/. c #653B32",
"(. c #653D32",
"). c #663D32",
"_. c #673D33",
"`. c #683B31",
"'. c #693B31",
"]. c #6B3D32",
"[. c #683F33",
"{. c #6C3D32",
"}. c #6D3D33",
"|. c #6D3E33",
" X c #6A3D34",
".X c #693F34",
"XX c #6C3E34",
"oX c #6F3F35",
"OX c #703F34",
"+X c #703F35",
"@X c #56403A",
"#X c #59403B",
"$X c #5A403C",
"%X c #5A413C",
"&X c #5B413C",
"*X c #5B413D",
"=X c #59433D",
"-X c #5B423C",
";X c #5A433D",
":X c #5B433D",
">X c #5C423D",
",X c #5D433E",
"<X c #5E433E",
"1X c #5E433F",
"2X c #5B443D",
"3X c #5B443E",
"4X c #5F443F",
"5X c #5F453F",
"6X c #5F463F",
"7X c #6D4034",
"8X c #714035",
"9X c #714036",
"0X c #724036",
"qX c #734136",
"wX c #734636",
"eX c #5D4540",
"rX c #5F4641",
"tX c #604440",
"yX c #614640",
"uX c #604740",
"iX c #614740",
"pX c #614741",
"aX c #634942",
"sX c #644943",
"dX c #664A43",
"fX c #664B43",
"gX c #644944",
"hX c #664B44",
"jX c #664B45",
"kX c #674B45",
"lX c #684C44",
"zX c #684C45",
"xX c #6A4D46",
"cX c #6B4D47",
"vX c #6B4E46",
"bX c #6D4F48",
"nX c #6E5049",
"mX c #6F504A",
"MX c #70514A",
/* pixels */
"R.qXqXqXqXqXqXqXqXqXqXqXqXqXqXqXqXqXqXqXqXqXqXqXqXqXqXqXqXqXqXqXqXqXqXqXqXqXqXqXqXqXqXqXqXqXqXqXqXqXqXqXqXqXqXqXqXqXqXqX",
"R.qXqXqXqXqXqXqXqXqXqXqXqXqXqXqXqXqXqXqXqXqXqXqXqXqXqXqXqXqXqXqXqXqXqXqXqXqXqXqXqXqXqXqXqXqXqXqXqXqXqXqXqXqXqXqXqXqXqXqX",
"R.qXqXqXqXqXqXqXqXqXqXqXqXqXqXqXqXqXqXqXqXqXqXqXqXqXqXqXqXqXqXqXqXqXqXqXqXqXqXqXqXqXqXqXqXqXqXqXqXqXqXqXqXqXqXqXqXqXqXqX",
"R.R.qXqXqXqXqXqXqXqXqXqXqXqXqXqXqXqXqXqXqXqXqXqXqXqXqXqXqXqXqXqXqXqXqXqXqXqXqXqXqXqXqXqXqXqXqXqXqXqXqXqXqXqXqXqXqXqXqXqX",
"R.qXqXqXqXqXqXqXqXqXqXqXqXqXqXqXqXqXqXqXqXqXqXqXqXwXqXqXqXqXqXqXqXqXqXqXqXqXqXqXqXqXqXqXqXqXqXqXqXqXqXqXqXqXqXqXqXqXqXqX",
"R.qXqXqXqXqXqXqXqXqXqXqXqXqXqXqXqXqXqXqXqXqXqXqXqXqXqXqXqXqXqXqXqXqXqXqXqXqXqXqXqXqXqXqXqXqXqXqXqXqXqXqXqXqXqXqXqXqXqXqX",
"qXR.qXqXqXqXqXqXqXqXqXqXqXqXqXqXqXqXqXqXqXqXqXqXqXqXqXqXqXqXqXqXqXqXqXqXqXqXqXqXqXqXqXqXqXqXqXqXqXqXqXqXqXqXqXqXqXqXqXqX",
"R.qXqXqXqXqXqXqXqXqXqXqXqXqXqXqXqXqXqXqXqXqXqXqXqXqXqXqXqXqXqXqXqXqXqXqXqXqXqXqXqXqXqXqXqXqXqXqXqXqXqXqXqXqXqXqXqXqXqXqX",
"R.R.qXqXqXqXqXqXqXqXqXqXqXqXqXqX/.S S S S S S S S S S S S S S r.qXqXXX@.S S S S S S S S S S r.qXqXqXqXqXqXqXqXqXqXqXqXqX",
"R.qXqXqXqXqXqXqXqXqXqXqXqXXX X Xh.O ; , , , , , < t 2 O O O O C  X X!.4 + , , , , , , , , O C  X9XqXqXqXqXqXqXqXqXqXqXqX",
"R.qXqXqXqXqXqXqXqXqXqXqXqX@.7 7 9 k x.F.F.F.F.F.P.gX;Xk k k k i 7 7 8 s I F.F.F.F.F.F.F.m.F i 7 Q.qXqXqXqXqXqXqXqXqXqXqX",
"R.qXqXqXqXqXqXqXqXqXqXoXE.V * j b ~ Z.#X#X#X#X#X&XzXyXw.G c c p # # - W e.#X#X#X#X#X#X#XK.6.K   E.qXqXqXqXqXqXqXqXqXqXqX",
"R.qXqXqXqXqXqXqXqXqXqXE.  i P J.#X#X#X#X#X#X#X#X#X#X4XMXw.c c c c c P J.#X#X#X#X#X#X#X#X#X#Xb.  E.qXqXqXqXqXqXqXqXqXqXqX",
"R.qXqXqXqXqXqXqXqXXX@.B i l.C.Y.#X#X#X#X#X#X#X#X#X#X%X4XuX2XY c c c R aXdX#X#X&XzXdX#X#X#X#Xb.  E.qXqXqXqXqXqXqXqXqXqXqX",
"qX[.[.[.[.[.wXqXqX X7 = P C.#X#X#X#X#X#X#X#X#X#X#X#X#X#XlXfXE c c c ! zXcX>X$X*XvXlX#X#X#X>XM.  E.qXqXqXqXqXqXqXqXqXqXqX",
"R.qXqXqX[.[.[.[.qX X7 j J.T.#X#X#X#X#X#X#X#X#X#X#X#X#X#X-XU.P c c c ! zXmXbX1X#X>X-X#X#X*XvX3X  E.qXqXqXqXqXqXqXqXqXqXqX",
"qXqXqX[.qXqXqXqXqX X8 z #X<X4X#X#X#X#X#X#X#X#X#X#X#X#X#X<X$XD i i l ! zXnXxX,X#X#X#X#X<XtXuXH.  E.qXqXqXqXqXqXqXqXqXqXqX",
"R.qXqXqXqXqXqXqXqX X7 z #XxXbX>X#X#X#X#X#X#X#X#X#X#X#X#XxXjXy     i ! zXxX#X#X#X#X#X#XxXzX! i   E.qXqXqXqXqXqXqXqXqXqXqX",
"qXqXqXqXqXqXqXqXqX X7 z #X<X4X#X#X#X#X#X#X#X#X#X#X#X,XxXm.8.z i i - z kXxX#X#X#X#X,XxXm.9.Z i   E.qXqXqXqXqXqXqXqXqXqXqX",
"R.qXqXqXqXqXqXqXqX X7 z #X#X#X#X#X#X#X#X#X#X#X#X#X#X4XMXw.c c c c * e rXsX>X$X#X>X5XzX9.c c i   E.qXqXqXqXqXqXqXqX7X7XqX",
"qXqXqXqXqXqXqXqXqX X7 z #X#X#X#X#X#X#X#X#X#X#X#X#X#X4XMXw.c c c c k d f 7.bX1X*XvXiX! Z c c i   E.qXqXqXqXqXqXqXqXqXqXqX",
"R.qXqXqXqXqXqXqXqX X7 z #X#X#X#X#X#X#X#X#X#X#X#X#X4XtXpX2.c c c c c l * J eXG.D.6X@Xc c c c i   E.qXqXqXqXqXqXqXqXqXqXqX",
"R.R.qXqXqXqXqXqXqX X7 z #X#X#X#X#X#X#X#X#X#X#X#X>XbXpXc c c c c c c c c i   i c c c c c c c i   E.qXqXqXqXqXqXqXqXqXqXqX",
"R.qXqXqXqXqXqXqXqX X7 z #X#X#X#X#X#X#X#X#X#X#X#X>XbXpXc c c c c c c c c l i - * l c c c c c i   k.qXqXqXqXqXqXqXqXqXqXqX",
"R.R.qXqXqXqXqXqXqX X7 z #X#X#X#X#X#X#X#X#X#X#X#X&XhX:Xc c c c c c c c c c c * + s k c c c c i   E.qXqXqXqXqXqXqXqXqXqXqX",
"R.qXqXqXqXqXqXqXqX X7 z #X#X#X#X#X#X#X#X#X#X#X#XK.4.T c c c c c c c c c c c k s + * c c c c i   k.7X7XqXqXqXqXqXqXqXqXqX",
"R.R.qXqXqXqXqXqXqX X7 z #X#X#X#X#X#X#X#X#X#X#X#XJ.P c c c c c c c c c c c c c l * - i l x g u 0 ^.qXqXqXqXqXqXqXqXqXqXqX",
"R.qXqXqXqXqXqXqXqX X7 z #X#X#X#X#X#X#X#X#X#X#X#XJ.P c c c c c c c c c c c c c c c i   i k O 0 =.{.qXqXqXqXqXqXqXqXqXqXqX",
"qXR.qXqXqXqXqXqXqX X7 z #X#X#X#X#X#X#X#X#X#X#XdXaXR c c c c c c c c c c c c c c c l i - @ . 0 =.{.qXqXqXqXqXqXqXqXqXqXqX",
"R.qXqXqXqXqXqXqXXX~.Z U #X#X#X>X-X#X#X#X#X#X#XxXzX! c c c c c c c c c c c c c c c c c * O O 6 %.].qXqXqXqXqXqXqXqXqXqXqX",
"qXR.qXqXqXqXqXqX@.Z rXaX#X#X*XvXlX#X#X#X#X#X#XxXzX! c c c c c c c c c c c c c c c c c k k k r & W.qXqXqXqXqXqXqXqXqXqXqX",
"R.qXqXqXqXqXqXqXS 1 =X6X#X#X&XzXdX#X#X#X#X#X#X6X2XY c c c c c c c c c c c c c c c c c c c c p # i.Q.9XqXqXqXqXqXqXqXqXqX",
"qXR.qXqXqXqXqXqXS O k ~ #X#X#X#X#X#X#X#X#X#X#X~ c c c c c c c c c c c c c c c c c c c c c c c c # 7  XqXqXqXqXqXqXqXqXqX",
"R.qXqXqXqXqXqXqXS O k ~ #X#X#X#X#X#X#X#X#X,XxX9.c c c c c c c c c c c c c c c c c c c c c c c c # 7  XqXqXqXqXqXqXqXqXqX",
"R.qXqXqXqXqXqXqXS O k ~ #X#X#X#X#X#X#X#X#X4XMXw.c c c c c c c c c c c c n P n v L G c G L v c c # 7  XqXqXqXqXqXqXqXqXqX",
"qXqXqXqXqXqXqXqXS O k ~ #X#X#X#X#X#X#X#X#X4XMXw.c c c c c c c c c c c c ! J.! H N.c.c c.N.H c c # 7  XqXqXqXqXqXqXqXqXqX",
"R.qXqXqXqXqXqXqXS O k <.4X%X#X#X#X#X#X#X4XtXpX2.c c c c c c c c c c v Q 0.B.0.6.K.Z.~ x.n.3.W c # 7  XqXqXqXqXqXqXqXqXqX",
"qXqXqXqXqXqXqXqXS O k w.MX4X#X#X#X#X#X>XbXpXc c c c c c c c c c c c P J.B.c B.#X#X#X#X~ P J.B.c # 7  XqXqXqXqXqXqXqXqXqX",
"R.qXqXqXqXqXqXqXS O k G w.1.~ ~ ~ ~ ~ ,.q.^ # p c c c c c G v.z.c c v Q 0.B.I.#X#X#X#XA.n.3.W c # 7  XqXqXqXqXqXqXqXqXqX",
"qXqXqXqXqXqXqXqX_ > p k c c v L G c G L v p O r k c c c G ! V.c.c c v L 5.#X#X#X#X#X#XL.V.! G c # 7  XqXqXqXqXqXqXqXqXqX",
"R.qXqXqXqXqXqXqXd. .% * c c H N.c.c c.N.H c k * + l c c c.V.! G c c H N.L.#X#X#X#X#X#X5.! V.c.c # 7  XqXqXqXqXqXqXqXqXqX",
"qXqXqXqXqXqXqXqXf.%.& # c c G v.x.~ x.n.3.W c # X t h c z.v.G c c c G v.A.#X#X#X#XI.B.0.3.n.z.c # 7  XqXqXqXqXqXqXqXqXqX",
"qXqXqXqXqXqXqXqXf.%.& # c c c c ~ #X~ P J.B.c #     # c c c c c c c c c ~ #X#X#X#XB.c B.J.P c c # 7  XqXqXqXqXqXqXqXqXqX",
"R.qXqXqXqXqXqXqX|.`.+.( # p c c Z ~ Z v Q W c h t X . # # * l c c c c c Z ~ ~ ~ ~ 0.B.0.3.n.z.c # 7  XqXqXqXqXqXqXqXqXqX",
"qXqXqXqXqXqXqXqXqXOXp.| & r k k k k k k c c c c k O       O a k c c c c c c c c c ! J.! H N.c.c # 7  XqXqXqXqXqXqXqXqXqX",
"qXqXqXqXqXqXqXqXqXOXp.:.%.6 O O O O O + l c c c k O       . o * c c c c c c c c c n P n v L G c # 3  XqXqXqXqXqXqXqXqXqX",
"R.qXqXqXqXqXqXqXqX+Xg.a.=.M 0 0 0 0 0 0 y i i i y 0 0 0 0 0 0 q i i g x c c c x g h c c c c c c # 7  XS.S..X.X.XqXqXqXqX",
"qXR.qXqXqXqXqXqXqXqXqX{.=.=.=.=.=.=.=.%.&       & %.=.=.=.=.=.}     O k c c c k O # c c c c c c # 3 j.S.S.S..X.X.XqXqXqX",
"R.qXqXqXqXqXqXqXqXqXqX8X{.a.=.=.=.=.=.:.o.} } } o.:.a.{.{.'.y.*.} } ` : # # # : ) m # # # # # # A { (.S.S..XqXqXqXqXqXqX",
"R.R.qXqXqXqXqXqXqXqXqXqXqXg.p.p.p.p.p.y.-.=.=.=.-.y.g.qXqXOXs.y.=.=.&.w & & & 5 [ N $ $ $ $ $ $ N $.).qXqXqXqXqXqXqXqXqX",
"R.qXqXqXqXqXqXqXqXqX[.qXwX+XOXOXOXOXOX}.y.=.=.=.y.}.+XqXqXqXOX'.=.=.#.>.%.%.%...] O.' ' ' ' ' ' O.$.)..XqXqXqXqXqX.X.XqX",
"R.R.qXqXqXqXqXqXqXqXqXqXqXqXqXqXqXqXqX+Xg.f.f.f.g.+XqXqXqXqXqX|.f.f.s.;.=.=.=.;.s.a.X.X./ / X.X.t.u._..XqXqXqXqXqXqXqXqX",
"R.qXqXqXqXqXqXqXqXqXqXqXqXqXqXqXqXqXqXqXqXqXqXqXqXqXqXqXqXqXqXqXqXqXOXp.=.=.=.p.OX{.=.=.=.X.=.=.{.qXqXqXqXqXqXqXqXqXqXqX",
"R.R.qXqXqXqXqXqXqXqXqXqXqXqXqXqXqXqXqXqXqXqXqXqXqXqXqXqXqXqXqXqXqXqX0X}.{.{.{.}.0X8X{.{.{.{.{.{.8XqXqXqXqXqXqXqXqXqXqXqX",
"R.qXqXqXqXqXqXqXqXqXqXqXqXqXqXqXqXqXqXqXqXqXqXqXqXqXqXqXqXqXqXqXqXqXqXqXqXqXqXqXqXqXqXqXqXqXqXqXqXqXqXqXqXqXqXqXqXqXqXqX",
"R.R.qXqXqXqXqXqXqXqXqXqXqXqXqXqXqXqXqXqXqXqXqXqXqXqXqXqXqXqXqXqXqXqXqXqXqXqXqXqXqXqXqXqXqXqXqXqXqXqXqXqXqXqXqXqXqXqXqXqX",
"R.qXqXqXqXqXqXqXqXqXqXqXqXqXqXqXqXqXqXqXqXqXqXqXqXqXqXqXqXqXqXqXqX[.[.qXqXqXqXqXqXqXqXqXqXqXqXqXqXqXqXqXqXqXqXqXqXqXqXqX",
"qXqXqXqXqXqXqXqXqXqXqXqXqXqXqXqXqXqXqXqXqXqXqXqXqXqXqXqX[.[.[.[.[.qXqX[.qXqX[.[.[.qXqXqXqXqXqXqXqXqXqXqXqXqXqXqX7X7X7X7X",
"R.qXqXqXqXqXqXqXqXqXqXqXqXqXqXqXqXqXqXqXqXqXqXqXqXqXqXqXqXqXqXqX[.[.[.qXqXqXqXqXqXqXqXqXqXqXqXqXqXqXqXqXqXqXqXqXqXqXqXqX",
"qXqXqXqXqXqXqXqXqXqXqXqXqXqXqXqXqXqXqXqXqXqXqXqXqXqXqXqXqXqXqXqXqXqXqXqXqXqXqXqXqXqXqXqXqXqXqXqXqXqXqXqX7X7X7X7X7X7X7X7X"
};
