/* XPM */
static char *result[] = {
/* columns rows colors chars-per-pixel */
"60 60 241 2 ",
"   c #080000",
".  c #090000",
"X  c #090101",
"o  c #0A0000",
"O  c #0B0000",
"+  c #0A0101",
"@  c #0B0303",
"#  c #0D0000",
"$  c #0E0000",
"%  c #0F0100",
"&  c #0C0303",
"*  c #0E0303",
"=  c #0C0404",
"-  c #0E0404",
";  c #0F0404",
":  c #0E0505",
">  c #0F0505",
",  c #100100",
"<  c #140201",
"1  c #150201",
"2  c #160202",
"3  c #170302",
"4  c #100505",
"5  c #100606",
"6  c #100707",
"7  c #180202",
"8  c #180302",
"9  c #1E0504",
"0  c #1F0604",
"q  c #1F0906",
"w  c #130808",
"e  c #140908",
"r  c #140909",
"t  c #150909",
"y  c #160B0A",
"u  c #160B0B",
"i  c #170B0B",
"p  c #180C0B",
"a  c #180C0C",
"s  c #190D0D",
"d  c #1E1110",
"f  c #1F1110",
"g  c #1F1211",
"h  c #200604",
"j  c #210806",
"k  c #240806",
"l  c #250907",
"z  c #250A07",
"x  c #260B07",
"c  c #280E0A",
"v  c #2C0E0B",
"b  c #2C130E",
"n  c #31120E",
"m  c #201111",
"M  c #201211",
"N  c #211312",
"B  c #211413",
"V  c #221413",
"C  c #241514",
"Z  c #271817",
"A  c #271918",
"S  c #2B1A19",
"D  c #2B1B1A",
"F  c #2E1E1C",
"G  c #341510",
"H  c #361C15",
"J  c #3B1914",
"K  c #3C1D17",
"L  c #311E1D",
"P  c #342120",
"I  c #342121",
"U  c #352220",
"Y  c #342221",
"T  c #352221",
"R  c #372321",
"E  c #372322",
"W  c #372423",
"Q  c #372524",
"!  c #382322",
"~  c #382423",
"^  c #3B2624",
"/  c #3B2625",
"(  c #3A2725",
")  c #3B2726",
"_  c #3C2726",
"`  c #3D2927",
"'  c #3E2927",
"]  c #411E18",
"[  c #421E18",
"{  c #41251C",
"}  c #48231C",
"|  c #49231C",
" . c #4E2720",
".. c #4E2921",
"X. c #4B2D24",
"o. c #402B29",
"O. c #422D2B",
"+. c #442D2B",
"@. c #442E2C",
"#. c #482F2D",
"$. c #522A22",
"%. c #562D25",
"&. c #48312F",
"*. c #49312F",
"=. c #563128",
"-. c #55352A",
";. c #5B3028",
":. c #5D3129",
">. c #5D3229",
",. c #5E372D",
"<. c #5A392E",
"1. c #493130",
"2. c #4A3230",
"3. c #4A3231",
"4. c #4A3331",
"5. c #4C3230",
"6. c #4E3331",
"7. c #4D3433",
"8. c #4F3432",
"9. c #4E3533",
"0. c #4E3633",
"q. c #4F3633",
"w. c #4E3534",
"e. c #503634",
"r. c #503734",
"t. c #523935",
"y. c #533937",
"u. c #5E3C30",
"i. c #5F3D31",
"p. c #553B38",
"a. c #553B39",
"s. c #513C3A",
"d. c #573C3A",
"f. c #573C3B",
"g. c #583C3A",
"h. c #593E3B",
"j. c #5C3F3C",
"k. c #5C3F3D",
"l. c #60342B",
"z. c #61342B",
"x. c #67392F",
"c. c #613C2F",
"v. c #68392F",
"b. c #693A30",
"n. c #693B31",
"m. c #6A3B31",
"M. c #683F33",
"N. c #6D3D33",
"B. c #693F34",
"V. c #5D413D",
"C. c #5E413F",
"Z. c #6D4034",
"A. c #60413E",
"S. c #60423F",
"D. c #60433F",
"F. c #724035",
"G. c #734136",
"H. c #734636",
"J. c #604240",
"K. c #614340",
"L. c #624240",
"P. c #624341",
"I. c #624441",
"U. c #634441",
"Y. c #654643",
"T. c #654644",
"R. c #664644",
"E. c #664744",
"W. c #674744",
"Q. c #684744",
"!. c #684745",
"~. c #6A4745",
"^. c #674844",
"/. c #684845",
"(. c #694947",
"). c #6A4946",
"_. c #6B4A47",
"`. c #6C4B47",
"'. c #6B4A48",
"]. c #6D4B49",
"[. c #6E4C49",
"{. c #6E4D49",
"}. c #6F4D4A",
"|. c #704D4A",
" X c #714D4B",
".X c #75514D",
"XX c #76504E",
"oX c #76514E",
"OX c #76524F",
"+X c #77524F",
"@X c #78524F",
"#X c #78534F",
"$X c #715350",
"%X c #715352",
"&X c #775250",
"*X c #785350",
"=X c #795351",
"-X c #7A5451",
";X c #7E5754",
":X c #7F5855",
">X c #7F5D5A",
",X c #805754",
"<X c #805855",
"1X c #805856",
"2X c #815956",
"3X c #815A56",
"4X c #825A56",
"5X c #835B57",
"6X c #845A57",
"7X c #845B57",
"8X c #835B58",
"9X c #845B58",
"0X c #855C59",
"qX c #865D5A",
"wX c #875D5A",
"eX c #875E5B",
"rX c #86605D",
"tX c #89605C",
"yX c #866462",
"uX c #8D6663",
"iX c #8E6663",
"pX c #8F6764",
"aX c #8E6A68",
"sX c #8F6B69",
"dX c #936C69",
"fX c #936F6C",
"gX c #956F6D",
"hX c #96706D",
"jX c #957A79",
"kX c #9E7F7D",
"lX c #AE9D9C",
"zX c #B09F9C",
"xX c #C0A9A7",
"cX c #D5C8C6",
"vX c #DBCFCE",
"bX c #E1D7D6",
"nX c #E2D9D9",
"mX c #E2DDDC",
"MX c #ECE9E9",
"NX c #F0EBEB",
"BX c #F1EBEB",
/* pixels */
"c.G.G.G.G.G.G.G.G.G.G.G.G.G.G.G.G.G.G.G.G.G.G.G.G.G.G.G.G.G.G.G.G.G.G.G.G.G.G.G.G.G.G.G.G.G.G.G.G.G.G.G.G.G.G.G.G.G.G.G.",
"c.G.G.G.G.G.G.G.G.G.G.G.G.G.G.G.G.G.G.G.G.G.G.G.G.G.G.G.G.G.G.G.G.G.G.G.G.G.G.G.G.G.G.G.G.G.G.G.G.G.G.G.G.G.G.G.G.G.G.G.",
"c.G.G.G.G.G.G.G.G.G.G.G.G.G.G.G.G.G.G.G.G.G.G.G.G.G.G.G.G.G.G.G.G.G.G.G.G.G.G.G.G.G.G.G.G.G.G.G.G.G.G.G.G.G.G.G.G.G.G.G.",
"c.c.G.G.G.G.G.G.G.G.G.G.G.G.G.G.G.G.G.G.G.G.G.G.G.G.G.G.G.G.G.G.G.G.G.G.G.G.G.G.G.G.G.G.G.G.G.G.G.G.G.G.G.G.G.G.G.G.G.G.",
"c.G.G.G.G.G.G.G.G.G.G.G.G.G.G.G.G.G.G.G.G.G.G.G.G.H.G.G.G.G.G.G.G.G.G.G.G.G.G.G.G.G.G.G.G.G.G.G.G.G.G.G.G.G.G.G.G.G.G.G.",
"c.G.G.G.G.G.G.G.G.G.G.G.G.G.G.G.G.G.G.G.G.G.G.G.G.G.G.G.G.G.G.G.G.G.G.G.G.G.G.G.G.G.G.G.G.G.G.G.G.G.G.G.G.G.G.G.G.G.G.G.",
"G.c.G.G.G.G.G.G.G.G.G.G.G.G.G.G.G.G.G.G.G.G.G.G.G.G.G.G.G.G.G.G.G.G.G.G.G.G.G.G.G.G.G.G.G.G.G.G.G.G.G.G.G.G.G.G.G.G.G.G.",
"c.G.G.G.G.G.G.G.G.G.G.G.G.G.G.G.G.G.G.G.G.G.G.G.G.G.G.G.G.G.G.G.G.G.G.G.G.G.G.G.G.G.G.G.G.G.G.G.G.G.G.G.G.G.G.G.G.G.G.G.",
"c.c.G.G.G.G.G.G.G.G.G.G.G.G.G.G.G.G.G.G.G.G.G.G.G.G.G.G.G.G.G.G.G.G.G.G.G.G.G.G.G.G.G.G.G.G.G.G.G.G.G.G.G.G.G.G.G.G.G.G.",
"c.G.G.G.G.G.G.G.G.G.G.G.G.G.G.G.G.G.G.G.G.G.G.G.G.G.G.G.G.G.G.G.G.G.G.G.G.G.G.G.G.G.G.G.G.G.G.G.G.G.G.G.G.G.G.G.G.G.G.G.",
"c.G.G.G.G.G.G.G.G.G.G.G.G.G.G.G.G.G.G.G.G.G.G.G.G.G.G.G.G.G.G.G.G.G.G.G.G.G.G.G.G.G.G.G.G.G.G.G.G.G.G.G.G.G.G.G.G.G.G.G.",
"c.G.G.G.G.G.G.G.G.G.G.G.G.G.G.G.G.G.G.G.G.G.G.G.G.G.G.G.G.B.B.B.B.B.B.G.G.G.G.G.G.G.G.G.G.G.G.G.G.G.G.G.G.G.G.G.G.G.G.G.",
"c.G.G.G.G.G.G.G.G.G.G.G.G.G.G.G.G.G.G.G.G.G.G.G.G.G.G.G.B.B.B.B.B.B.B.B.G.G.G.G.G.G.G.G.G.G.G.G.G.G.G.G.G.G.G.G.G.G.G.G.",
"c.G.G.G.G.G.G.G.G.G.G.G.G.G.G.G.G.G.G.G.G.G.G.G.G.G.G.G.B.B.B.B.B.B.B.B.B.G.G.G.G.G.G.G.G.G.G.G.G.G.G.G.G.G.G.G.G.G.G.G.",
"G.M.M.M.M.M.H.G.G.G.G.H.G.G.G.G.G.G.G.G.G.G.G.G.G.G.G.B.B.B.B.B.B.B.B.B.B.G.G.G.G.G.G.G.G.G.G.G.G.G.G.G.G.G.G.G.G.G.G.G.",
"c.G.G.G.M.M.M.M.G.G.G.G.G.G.G.G.G.G.G.G.G.G.G.G.G.G.G.B.B.B.B.i.i.i.B.B.B.G.G.G.G.G.G.G.G.G.G.G.G.G.G.G.G.G.G.G.G.G.G.G.",
"G.G.G.M.G.G.G.G.G.G.H.H.G.G.G.G.G.G.G.G.G.G.G.G.G.G.B.,.=.u.i.i.i.i.i.i.B.G.G.G.G.G.G.G.G.G.G.G.G.G.G.G.G.G.G.G.G.G.G.G.",
"c.G.G.G.G.G.G.G.G.G.G.G.G.G.G.G.G.G.G.G.G.G.G.G.G.G.B.K < <.i.i.i.i.i.B.G.G.G.G.G.G.G.G.G.G.G.G.G.G.G.G.G.G.G.G.G.G.G.G.",
"G.G.G.G.G.G.G.G.G.G.G.G.G.G.G.G.G.G.G.G.G.G.G.G.G.n.c 2 o q { i.i.i.i.i.G.G.G.G.G.G.G.G.G.G.G.G.G.G.G.G.G.G.G.G.G.G.G.G.",
"c.G.G.G.G.G.G.G.G.G.G.G.G.G.G.G.G.G.G.G.G.G.G.G.z...# p C + b X.X.-.i.B.G.G.G.G.G.G.G.G.G.G.G.G.G.G.G.G.G.G.G.G.G.Z.Z.G.",
"G.G.G.G.G.G.G.G.G.G.G.G.G.G.G.G.G.G.G.G.G.G.G.G.x     #.@X4       H B.G.G.G.G.G.G.G.G.G.G.G.G.G.G.G.G.G.G.G.G.G.G.G.G.G.",
"c.G.G.G.G.G.G.G.G.G.G.G.G.G.G.G.G.G.G.G.G.G.G.G.x     #.6X~.!     2 v n.G.G.G.G.G.G.G.G.G.G.G.G.G.G.G.G.G.G.G.G.G.G.G.G.",
"c.c.G.G.G.G.G.G.G.G.G.G.G.G.G.G.G.G.G.G.G.G.F.v.j X u 8.wXwX6.e 6 & , :.m.G.G.G.G.G.G.G.G.G.G.G.G.G.G.G.G.G.G.G.G.G.G.G.",
"c.G.G.G.G.G.G.G.G.G.G.G.G.G.G.G.G.G.G.G.G.G.v.7 o y *X5XwXwX.XD.3.Z   , v G.G.G.G.G.G.G.G.G.G.G.Z.G.G.G.G.G.G.G.G.G.G.G.",
"c.c.G.G.G.G.G.G.G.G.G.G.M.G.G.G.G.G.G.G.G.J k o ' y.[.}.}.}.`.U.V 5     % v n.G.G.G.G.Z.Z.G.G.G.G.G.G.G.G.G.G.G.G.G.G.G.",
"c.G.G.G.G.G.G.G.G.G.G.G.G.G.G.G.G.G.G.G.G.x     7.Y././././.P.g.m i i i r , :.m.G.G.Z.Z.Z.Z.G.G.Z.Z.Z.G.G.G.G.G.G.G.G.G.",
"c.c.G.G.G.G.G.G.G.G.G.G.G.G.G.G.G.G.G.G.G.x     ) r.E././././ t  X:X:X:XL.  , v G.G.Z.Z.Z.Z.G.G.G.G.G.G.G.G.G.G.G.G.G.G.",
"c.G.G.G.G.G.G.G.G.G.G.G.G.G.G.G.G.G.G.x.] 3 4 +.L S R *.V.oXA.5.,XwXqX=XQ.T - 3 ] x.G.Z.Z.G.G.G.G.G.G.G.G.G.G.G.G.G.G.G.",
"G.c.G.G.G.G.G.G.G.G.G.G.G.G.G.G.G.G.m.$.  r Z aXQ i i P f.9XwXwX9X7X4X_.W.C.w     ;.G.G.G.G.G.G.G.G.G.G.G.G.G.G.G.G.G.G.",
"c.G.G.G.G.G.G.G.G.G.G.G.G.G.G.G.G.G.v $   L.sXNXkX:X:X3X8XwXwX0X].).)./.K.&.5     ;.G.G.G.G.G.G.G.G.G.G.G.G.G.G.G.G.G.G.",
"G.c.G.G.G.G.G.G.G.G.G.G.G.G.G.G.G.G.x     j.>XzXfXwXwX:X#X#X#X+X).e.~ ~ I A &     G  .G.G.G.G.G.G.G.G.G.G.G.G.G.G.G.G.G.",
"c.G.G.G.G.G.G.G.G.G.G.G.G.G.G.G.G.G.x     q.^./.;X0X0XOX/./././.^.^ 4 4 4 > ; * & . z N.F.G.G.G.G.G.G.G.G.G.G.G.G.G.G.G.",
"G.c.G.G.G.G.G.G.G.G.G.G.G.G.G.G.G.G.x     ` t.E._.'.'.(./././.E.t.U.@X@X@XXXS.p.O.y O 3 >.G.G.G.G.G.G.G.G.G.G.G.G.G.G.G.",
"c.G.G.G.G.G.G.G.G.G.G.G.G.G.G.G.x.[ 8     B D E ~ _ d.!.&X&XjXlX%X&XwXwXwXqX=X|.h.U N   G } G.G.G.G.G.G.G.G.G.G.G.G.G.G.",
"c.G.G.G.G.G.G.G.G.G.G.G.G.G.G.N.%.  @ = - > 4 4 4 a s.$XuXeXxXBXhXwXwXwXwX0X0X;X/.y.)     3 G.G.G.G.G.G.G.G.G.G.G.G.G.G.",
"G.G.G.G.G.G.G.G.G.G.G.G.G.G.G.l 1   Y 1.k. X@X@X@XyXmXMXnXiXpXgXtXwXwXwX1X'.'._./.T.7.    3 G.G.G.G.G.G.G.G.G.G.G.G.G.G.",
"c.G.G.G.G.G.G.G.G.G.G.G.G.G.G.3     o.h.}.2XwXwXwXdXvXbXcXrX<X<X<X<X<X<X-X/./././.I.2.    3 G.G.G.G.G.G.G.G.G.G.G.G.G.G.",
"G.G.G.G.G.G.G.G.G.G.G.G.G.G.G.3     q.{.0X0X0X0X0X0X0X0X4X)././././././././.^.E.E.w.W   $ 9 G.G.G.G.G.G.G.G.G.G.G.G.G.G.",
"c.G.G.G.G.G.G.G.G.G.G.G.G.G.G.3     ` a.'.'.'.'.'.'.'.'._././././././././.E.t.0.0.g :   $.b.G.G.G.G.G.G.G.G.G.G.G.G.G.G.",
"G.G.G.G.G.G.G.G.G.G.G.G.G.G.G.n h   F @.J.J.J.J.R./././././././.K.J.J.J.k.9.` ( ( r % x l.G.G.G.G.G.G.G.G.G.G.G.G.G.G.G.",
"c.G.G.G.G.G.G.G.G.G.G.G.G.G.G.G.;.    a 4.4.4.4.J././././././.E.0.4.4.4.(           x G.G.G.G.G.G.G.G.G.G.G.G.G.G.G.G.G.",
"G.G.G.G.G.G.G.G.G.G.G.G.G.G.G.G.N.;.0 & a a a a d M M M M M M f s a a a r         | z.G.G.G.G.G.G.G.G.G.G.G.G.G.G.G.G.G.",
"G.G.G.G.G.G.G.G.G.G.G.G.G.G.G.G.G.G.J h                                 % x x x x l.G.G.G.G.G.G.G.G.G.G.G.G.G.G.G.G.G.G.",
"c.G.G.G.G.G.G.G.G.G.G.G.G.G.G.G.G.G.G.;.                                x G.G.G.G.G.G.G.G.G.G.G.G.G.G.G.G.G.G.G.G.G.G.G.",
"G.G.G.G.G.G.G.G.G.G.G.G.G.G.G.G.G.G.G.N.;.;.;.;.;.;.;.;.;.;.;.;.;.;.;.;.z.G.G.G.G.G.G.G.B.B.B.B.G.G.G.G.G.G.G.G.G.G.G.G.",
"G.G.G.G.G.G.G.G.G.G.G.G.G.G.G.G.G.G.G.G.G.G.G.G.G.G.G.G.G.G.G.G.G.G.G.G.G.G.G.G.G.G.B.i.i.i.i.B.B.B.G.G.G.G.G.G.G.G.G.G.",
"c.G.G.G.G.G.G.G.G.G.G.G.G.G.G.G.G.G.G.G.G.G.G.G.G.G.G.G.G.G.G.G.G.G.G.G.G.G.G.G.B.B.i.i.i.i.i.i.G.G.G.i.i.B.B.B.G.G.G.G.",
"G.c.G.G.G.G.G.G.G.G.G.G.G.G.G.G.G.G.G.G.G.G.G.G.G.G.G.G.G.G.G.G.G.G.G.G.G.G.B.B.B.i.i.i.i.i.i.i.B.B.i.i.i.i.B.B.B.G.G.G.",
"c.G.G.G.G.G.G.G.G.G.G.G.G.G.G.G.G.G.G.G.G.G.G.G.G.G.G.G.G.G.G.G.G.G.G.B.B.B.B.B.B.i.i.i.i.i.i.i.B.B.B.i.i.B.G.G.G.G.G.G.",
"c.c.G.G.G.G.G.G.G.G.G.G.G.G.G.G.G.G.G.G.G.G.G.G.G.G.G.G.G.G.G.G.G.G.G.G.G.G.G.B.B.i.i.i.i.i.i.i.i.B.B.G.G.G.G.G.G.G.G.G.",
"c.G.G.G.G.G.G.G.G.G.M.G.H.G.G.G.G.G.G.G.G.G.G.G.G.G.G.G.G.G.G.G.G.G.G.G.G.G.G.B.B.B.i.i.i.i.i.i.B.B.B.B.G.G.G.G.G.B.B.G.",
"c.c.G.G.G.G.G.G.G.G.G.G.G.G.G.G.G.G.G.G.G.G.G.G.G.G.G.G.G.G.G.G.G.G.G.G.G.G.G.G.G.G.B.B.i.i.B.B.B.B.B.B.G.G.G.G.G.G.G.G.",
"c.G.G.G.G.G.G.G.G.G.G.G.G.G.G.G.G.G.G.G.G.G.G.G.G.G.G.G.G.G.G.G.G.G.G.G.G.G.G.G.G.G.G.G.G.B.G.G.G.G.G.G.G.G.G.G.G.G.G.G.",
"c.c.G.G.G.G.G.G.G.G.G.G.G.G.G.G.G.G.G.G.G.G.G.G.G.G.G.G.G.G.G.G.G.G.G.G.G.G.G.G.G.G.G.G.G.G.G.G.G.G.G.G.G.G.G.G.G.G.G.G.",
"c.G.G.G.G.G.G.G.G.G.G.G.G.G.G.G.G.G.G.G.G.G.G.G.G.G.G.G.G.G.G.G.G.G.G.G.G.G.G.G.G.G.G.G.G.G.G.G.G.G.G.G.G.G.G.G.G.G.G.G.",
"c.c.G.G.G.G.G.G.G.G.G.G.G.G.G.G.G.G.G.G.G.G.G.G.G.G.G.G.G.G.G.G.G.G.G.G.G.G.G.G.G.G.G.G.G.G.G.G.G.G.G.G.G.G.G.G.G.G.G.G.",
"c.G.G.G.G.G.G.G.G.G.G.G.G.G.G.G.G.G.G.G.G.G.G.G.G.G.G.G.G.G.G.G.G.M.M.G.G.G.G.G.G.G.G.G.G.G.G.G.G.G.G.G.G.G.G.G.G.G.G.G.",
"G.G.G.G.G.G.G.G.G.G.G.G.G.G.G.G.G.G.G.G.G.G.G.G.G.G.G.G.M.M.M.M.M.G.G.M.G.G.M.M.M.G.G.G.G.G.G.G.G.G.G.G.G.G.G.G.Z.Z.Z.Z.",
"c.G.G.G.G.G.G.G.G.G.G.G.G.G.G.G.G.G.G.G.G.G.G.G.G.G.G.G.G.G.G.G.M.M.M.G.G.G.G.G.G.G.G.G.G.G.G.G.G.G.G.G.G.G.G.G.G.G.G.G.",
"G.G.G.G.G.G.G.G.G.G.G.G.G.G.G.G.G.G.G.G.G.G.G.G.G.G.G.G.G.G.G.G.G.G.G.G.G.G.G.G.G.G.G.G.G.G.G.G.G.G.G.G.Z.Z.Z.Z.Z.Z.Z.Z."
};
