/* XPM */
static char *result[] = {
/* columns rows colors chars-per-pixel */
"60 60 88 1 ",
"  c #060607",
". c #070608",
"X c #090709",
"o c #0B0A0B",
"O c #100D0C",
"+ c #15100F",
"@ c #1E0F15",
"# c #151617",
"$ c #1B1412",
"% c #161718",
"& c #1D1418",
"* c #17191A",
"= c #1B1C1D",
"- c #221216",
"; c #2D1517",
": c #241A16",
"> c #2D1618",
", c #261D19",
"< c #2C1F1A",
"1 c #321417",
"2 c #2E211B",
"3 c #33251E",
"4 c #1E1F20",
"5 c #1F2021",
"6 c #212223",
"7 c #262728",
"8 c #272828",
"9 c #292B2B",
"0 c #322522",
"q c #352821",
"w c #3C2B23",
"e c #302B2A",
"r c #382C29",
"t c #3E302F",
"y c #2F3031",
"u c #323434",
"i c #383332",
"p c #363738",
"a c #373838",
"s c #3A3B3B",
"d c #422E26",
"f c #472D28",
"g c #453127",
"h c #463128",
"j c #4C362B",
"k c #4E392B",
"l c #533B2E",
"z c #613C2F",
"x c #683F33",
"c c #514035",
"v c #5F4533",
"b c #614736",
"n c #6D4034",
"m c #654A36",
"M c #67473A",
"N c #624A3A",
"B c #6D4E3A",
"V c #734136",
"C c #6D523E",
"Z c #75553E",
"A c #3F4040",
"S c #424343",
"D c #474748",
"F c #474848",
"G c #4B4B4B",
"H c #58514C",
"J c #535353",
"K c #5A5451",
"L c #5B5B5B",
"P c #734E40",
"I c #68594F",
"U c #626363",
"Y c #6E6D6C",
"T c #7B746E",
"R c #6F7070",
"E c #727373",
"W c #7E7A77",
"Q c #7B7B7B",
"! c #856046",
"~ c #886347",
"^ c #866048",
"/ c #896249",
"( c #90674C",
") c #90684B",
"_ c #996F4F",
"` c #806D5F",
"' c #88817C",
"] c #818180",
/* pixels */
"zVVVVVVVVVVVVVVVVVVVVVVVVVVVVVVVVVVVVVVVVVVVVVVVVVVVVVVVVVVV",
"zVVVVVVVVVVVVVVVVVVVVVVVVVVVVVVVVVVVVVVVVVVVVVVVVVVVVVVVVVVV",
"zVVVVVVVVVVVVVVVVVVVVVVVVVVVVVVVVVVVVVVVVVVVVVVVVVVVVVVVVVVV",
"zzVVVVVVVVVxVVVVVVVVVVVVVVVVVVVVVVVVVVVVVVVVVVVxVVVVVVVVVVVV",
"zVVVVVVVxxVxVVVVVVxxVVxxVVVxVVVVxxxxxxxxVVxxVVxxVxxxVxxVVVVV",
"zVVVVVf**0Vw****4>**-5**=&4*5-*4*&5-54&%-4**4:**wxr&>jVVVVVV",
"VzVVVftuuufiaGsaGu4ysGasGGDuuu9yppppee944uy9DDG5>fpppflxVVVV",
"zVVVV%uJJA%SLQLKQD*DL]JLQQEJJGsSGJGGAss66GSAE]]6&4SGJp-VVVVV",
"zzVVV*9ssu*SJJSAJp4pALJGSSSssssssAsssss6=sssJJJ54#ysse4xxVVV",
"zVVVV09uu9*sDSuuS949pAAAyyyuuuyuyyuyyuy4,aapSSD64#9uye0xVVVV",
"zVVVVVf**=*77**=744#4#4#********4##44#4*4pu7**=7444#4fVVVVVV",
"zVVVVVf=y98=4qq044@;;;11>>>>>>>>;;;1;;-@*55=qqq=47ss&lVVVVVV",
"zVVVVVf=aa84,gfd4&@;1111111111111111111-@#*:dfh547DD4fVVVVVV",
"zVVVVVf=GS*qgPPBf- @@@@@@@@@@@@@@@@@@@@@@ :dBPPh04SG4fVVVVVV",
"Vxxxxxf=GS*qhB/^f: .ooooOoXXooooXooXOXooX.:d^/Zj0#AD4fxVVVVV",
"zVVVxxd=GF=0tB((g,ooOoooOoOoOOooOoOOoOOooo,h((Mw04SD4wxxVVVV",
"VVnnVVf4EU9==g!)gd3dwwwwwwdwwwwwwwwwwwwwwwwk)!g,48pa*fVVVVVV",
"zVVVVVf5ERs6=wvCCBBBBBBBBBBBBBBBBBBBBBBBBBBBCv3=4uAA4fVVVVVV",
"VVVVVVf5RRJ7=dgk____________________________jgw:6aGF=fVVVVVV",
"zVVVVVf=GJs6,3vC'`ZZZZZZZZZZZZZZZZZZZZZZZZ`'Cvg=6aGF4fVVVnnV",
"VVVVVVf=JJS6*3lNYIbvvvvvvvvvvvvvvvvvvvvvvvIYmc2=6sGG=fVVVVVV",
"zVVVVVf5EEJ8# :2<33<<<22222233<<2222222222222:X%6aGG=fVVVVVV",
"zzVVVVf=GJs6# :3M!~w:oooOoooooXOoooooo :3mmmg3 %6aGD4fVVVVVV",
"zVVVVVf=GGa6# $2lZ~w:                  2wBmv3: +6aDS=fVVVVVV",
"zzVVVVf=GGs5*  o2lB3:     XXX          $3Bl<o  #6asu=fVVVVVV",
"zVVVVVf=ssa5*  o23w32::2:::::::::2::::223w3<o  #6sau=fVVVVVV",
"zzVVVVf=pas5#  o22333r33333333333333333ww33<o  #6ssa=fVVVVVV",
"zVVVVVf=ass5#  o2wlmI'CBBBBBBBBBBBBmBBBTWCj<o  #6aGG=fVVVVVV",
"VlVVVVf=AAs5#  X+3gjcHckkkkkkkkkkkkjkkkHHl3$.. #6aGG=fVVVVVV",
"xVVVVVf=FGs5#    +223322222222222222222222$    #6aGD=fVVVVVV",
"VzVVVVf=GGa5#   X+2jk322     XXXXX X,3www2+    #6aGG4fVVVVVV",
"zVVVVVf=FGs2#   XO:3g32:            :2w33$+    %6aGG=fVVVVVV",
"VzVVVVf=GGa6%     X,3w2: X X        :2w22      #6aGG=fVVVVVV",
"zVVVVVf4GGa6%      X+222,,:22,2:2:,2:22+o      #6sGG=fVVVVVV",
"zVVVVVh=FGa6#       o22222:$::::=::2222O       #6aGF=fVVVVVV",
"VVVVVVf=GGa6#       o,2,$OXX       :22$O       #6aGG=fVVVVVV",
"zVVVVVf=aSG6#       Xo:%X          O$:O        #5sGF=fVVVVVV",
"VVVVVVf*uAJ7#         $#            $$         #5sGD=fVVVVVV",
"zVVVVVf=pSJ7#                                  #5sap=fVVVVVV",
"VVVVVVf=SGA6#                                  #5sDS=fVVVVVV",
"zVVVVVf=DDu5%                                  #5sGD=fVVVVVV",
"VVVVVVf=uu==#                                  #6aGG4fVVVVVV",
"VVVVVVf=uu**#                                  #6sGG=fVVVVVV",
"zVVVVVf=au=*#                                  #5sDD=fVVVVVV",
"VVVVVVf=DGu5#                                  #4sss4fVVVVVV",
"VVVVVVf=GGs6#                                  #6ssu*fVVVVVV",
"zVVVVVf=GGa6#                                  #6asu*rxxVVVV",
"VzVVVVf*pu=*#                                  #6asp4wxxnVVV",
"zVVVVVf=99***oooooooooooooooooooooooooooooooooo*5yyy=tnnVVVV",
"zzVVVVf%************4********4*****==********=*******tVVVnVV",
"zVVVx09uSa*JUSLUAAAyyuyuyAAyyyAASSSAAAuAcyyuuyuy9*9yAi0VVnnV",
"zzVVV*9sGS*LYGREJJJapupupSDpppJGGJGGJGAAGpupppAuy*yAGp*VVVVV",
"zVVVV=eaau*=6sGJAsa4**5*=4==*4ssssssAssss=*=*8J6=*uas9*VVVVV",
"zzVVVfr797**=9uu9884*****=%**=77999998898****=u=**699rhVVVVV",
"zVVVVVf***&=************4&&4**:4*****#********%%*****hVVVVVV",
"zzVVVVVVVVVVVxVVVVVVVVVMVVxVxxVVVVVVVVBmVVVVVVVVVVVVVVVVVVVV",
"zVVVVVVVVVVVVVVVVVVVVVVVVVVVxxVVVvxVVVVVVVVVVVVVVVVVVVVVVVVV",
"VVVVVVVVVVVVVVVVVVVVVVVVVVVVxbxxnVVxVVxxxVVVVVVVVVVVVVVVnnnn",
"zVVVVVVVVVVVVVVVVVVVVVVVVVVVVVVVxxxVVVVVVVVVVVVVVVVVVVVVVVVV",
"VVVVVVVVVVVVVVVVVVVVVVVVVVVVVVVVVVVVVVVVVVVVVVVVVVVVnnnnnnnn"
};
