/* XPM */
static char *a0d5eb987a16495b9d6dd42f148c5288eNEDIpgzKBJnNhnT[] = {
/* columns rows colors chars-per-pixel */
"100 100 87 1 ",
"  c #4A90E2",
". c #4B90E2",
"X c #4C91E2",
"o c #4F93E3",
"O c #5093E3",
"+ c #5395E3",
"@ c #5396E3",
"# c #5798E4",
"$ c #5999E4",
"% c #5A9AE4",
"& c #5C9BE5",
"* c #5D9CE5",
"= c #609DE6",
"- c #639FE6",
"; c #67A2E7",
": c #69A3E7",
"> c #6FA7E8",
", c #70A7E8",
"< c #72A9E8",
"1 c #73A9E9",
"2 c #75ABE9",
"3 c #77ACE9",
"4 c #78ACE9",
"5 c #7AADEA",
"6 c #7DAFEA",
"7 c #7FB1EB",
"8 c #80B1EB",
"9 c #83B3EB",
"0 c #87B5EC",
"q c #8AB7EC",
"w c #8BB8EC",
"e c #8DB9ED",
"r c #90BBED",
"t c #91BCED",
"y c #92BCED",
"u c #94BEEE",
"i c #9AC1EF",
"p c #9CC2EF",
"a c #9EC4F0",
"s c #A1C6F0",
"d c #A2C6F0",
"f c #A3C6F0",
"g c #A4C7F0",
"h c #A6C8F1",
"j c #A7C9F1",
"k c #A9CAF1",
"l c #AACBF1",
"z c #ABCBF1",
"x c #ACCCF2",
"c c #B0CFF2",
"v c #B3D0F3",
"b c #B4D1F3",
"n c #B7D3F3",
"m c #B8D3F4",
"M c #BDD7F4",
"N c #BED7F5",
"B c #C3DAF5",
"V c #C5DCF6",
"C c #C6DCF6",
"Z c #CADEF6",
"A c #CBDFF7",
"S c #CFE1F7",
"D c #D0E2F7",
"F c #D2E4F8",
"G c #D6E6F8",
"H c #D7E6F9",
"J c #D8E7F9",
"K c #D9E7F9",
"L c #DAE8F9",
"P c #DBE9F9",
"I c #DEEBFA",
"U c #E0ECFA",
"Y c #E4EEFB",
"T c #E6F0FB",
"R c #E8F1FB",
"E c #EBF3FC",
"W c #ECF3FC",
"Q c #EEF5FC",
"! c #EFF5FC",
"~ c #F0F6FD",
"^ c #F1F6FD",
"/ c #F3F8FD",
"( c #F4F8FD",
") c #F8FBFE",
"_ c #FAFCFE",
"` c #FBFCFE",
"' c #FDFEFF",
/* pixels */
"                                                                                                    ",
"                                                                                                    ",
"                                                                                                    ",
"                                                                                                    ",
"                                                                      X                             ",
"                                                                  *19ujnvfe5;o                      ",
"                             >wjMG^`YSvi9:@                  X>pS`''`'''''''`'C0X                   ",
"                          *fR''''''''''''''m>  X           >xR''''''''''''''`'''!a@                 ",
"                        *n'''''''''''''''''''PqX        $aY'''''''''''''''''''''''I;                ",
"                        u('''''''''''''''''''''RyX    2C'''''''''''''''''''''''''''^5               ",
"                         $m''''''''''''''''''''''I1 7J''''''''''''''''''''''''''''''`7 X            ",
"                           2T''''''''''''''''''''''U'''''''''''''''''''''''''''''''''`1X            ",
"                            @B''''''''''''''''''''''''''''''''''''''''''''''''''''''''R+            ",
"                              k''''''''''''''''''''''''''''''''''''''''''''''''''''''''x            ",
"                               j'''''''''''''''''''''''''''''''''''''''''''''''`/`'''''(9,;         ",
"                                C'''''''''''''''''''''''''''''''''''''''''''''G@Xn''''''''''Z9@     ",
"                                @!''''''''''''''''''''''''''''''''''''''''''''y X:''''''''''''!7    ",
"                                Xw''''''''''''''''''''''''''''''''''''''''''''C  p'''''''''''''^    ",
"                                XXR''''''''''''''''''''''''''''''''''''''''''''IG''''''''''''''n    ",
"                                  l'''''''''''''''''''''''''''''''''''''''''''''''''''''''''''(eO   ",
"                                  5'''''''''''''''''''''''''''''''''''''''''''''''''''''''''''''9   ",
"                                  ;''''''''''''''''''''''''''''''''''''''''''''''''''''''''''''S@   ",
"                                  7`'''''''''''''''''''''''''''''''''''''''''''''''''''''''''`j@    ",
"                                 7''''''''''''''''''''''''''''''''''''''''''''''''''''''''''v$      ",
"                                9''''''''''''''''''''''''''''''''''''''''''''''''''''''''(x*        ",
"                               7'''''''''''''''''''''''''''''''''''''''''''''''''''''''Ie@          ",
"                              2`'''''''''''''''''''''''''''''''''''''''''''`SB'''`''Yk>             ",
"                             ;('''''''''''''''''''''''''''''''''''''''''''f@ *`!Zj7*                ",
"                            #T''''''''''''''''''''''''''''''''''''''''''''i   $                     ",
"                           XS'''''''''''''''''''''''''''''''''''''''''''''k                         ",
"                           g''''''''''''''''''''''''''''''''''''''''''''''n                         ",
"                          1''''''''''''''''''''''''''''''''''RB'''''''''''n                         ",
"                         +Y''''''''''''''''''''''''''''''''''9Xk`'''''''''v                         ",
"                         k''''''''''''''''''''''''''''''''''S   f'''''''''x                         ",
"                        -(''''''''''''''''''''''''''''''''''c    v''''''''i                         ",
"                        M''''''''''''''''''''''''''''''''''''n    F`'''''`9                         ",
"                       :'''''''''''''''''''''''''''''''''''`Z:    ;`'''''';                         ",
"                       B''''''''''''''''''''''''''''''''''T9       l'''''!                          ",
"                      :'''''''''''''''''''''''''''''''''`f X       $``'''B                          ",
"                     Xc''''''''''''''''''''''''''''''''S;           k''''e                          ",
"                     +(''''''''''''''''''''''''''''''^q             @(''`#                          ",
"                     r''''''''''''''''''''''''''''''B#               j''B                           ",
"                     J''''''''''''''''''''''''''''^q                 $`'2                           ",
"                    -''''''''''''''''''''''''''''S*                   vP                            ",
"                    i''''''''''''''''''''''''''`i                     ;7                            ",
"                    D'''''''''''''''''''''''''T>                                                    ",
"                   +'''''''''''''''''''''''''C@                                                     ",
"                   6''''''''''''''''''''''''fX                                                      ",
"                   f''''''''''''''''''''''^9                                                        ",
"                   B'''''''''''''''''''''R,                                                         ",
"                . .U''''''''''''''''''''U=                                                          ",
"                ..+''''''''''''''''''''G@                                                           ",
"                  :'''''''''''''''''''F@X                                                           ",
"                 .q''''''''''''''''''D@                                                             ",
"                ..l'''''''''''''''''P@                                                              ",
"                ..B''''''''''''''''Y$                                                               ",
"                 .I'''''''''''''''^;                                                                ",
"                X )''''''''''''''',                                                                 ",
"                 ='''''''''''''''e                                                                  ",
"                X4''''''''''''''cX                                                                  ",
"                 y'''''''''''''D                                                                    ",
"                 l''''''''''''~$                                                                    ",
"                 B'''''''''''',                                                                     ",
"                 P'''''''''''iX                                                                     ",
"                 ^''''''''''Z                                                                       ",
"                @''''''''''R#                                                                       ",
"                :''''''''''1                                                                        ",
"                5'''''''''k                                                                         ",
"                r''''''''PX                                                                         ",
"                g'''''''`:                                                                          ",
"                n'''''''i                                                                           ",
"                Z`'''''PX                                                                           ",
"                P'''''`:                                                                            ",
"                E'''''j                                                                             ",
"                )''''T+                                                                             ",
"               i'''''6                                                                              ",
"             Xn'''''Ro                                                                              ",
"            @S''''''`n                                                                              ",
"           +G'''''''''q                                                                             ",
"          +I''''''''''/:                                                                            ",
"         @J''''''''''''IX                                                                           ",
"        XS''''''''''''''k                                                                           ",
"        n`''''''''''''''',                                                                          ",
"       e'''''''''''''''''IX                                                                         ",
"      ;`''''''''I'''''''''iX                                                                        ",
"     XG'''''''''9`''''''''(&                                                                        ",
"    Xu'''''''''` M'''''''''m                                                                        ",
"    +!'''''''''x ;)''''''''':                                                                       ",
"    d''''''''(iX  >G''''''''M                                                                       ",
"    !''''''Rp$     X6D'''''''$                                                                      ",
"   2'''''!rX          ,D'''''y                                                                      ",
"   y''''C+              q^'''B                                                                      ",
"   y'''k                 $m''RX                                                                     ",
"   0'/0                   X=x^@                                                                     ",
"   $B;                       X                                                                      ",
"                                                                                                    ",
"                                                                                                    ",
"                                                                                                    ",
"                                                                                                    ",
"                                                                                                    "
};
