/* XPM */
static char *result[] = {
/* columns rows colors chars-per-pixel */
"60 60 175 2 ",
"   c #080000",
".  c #090000",
"X  c #090100",
"o  c #090101",
"O  c #0A0000",
"+  c #0B0202",
"@  c #0B0303",
"#  c #0C0000",
"$  c #0D0000",
"%  c #0E0000",
"&  c #0C0303",
"*  c #0C0404",
"=  c #110101",
"-  c #120101",
";  c #140201",
":  c #160201",
">  c #170302",
",  c #110606",
"<  c #180302",
"1  c #190302",
"2  c #120808",
"3  c #130808",
"4  c #150E0E",
"5  c #1E0E0E",
"6  c #141313",
"7  c #1A1D1D",
"8  c #1A1D1E",
"9  c #290D09",
"0  c #2B0E0A",
"q  c #2E130E",
"w  c #31130E",
"e  c #32130F",
"r  c #211312",
"t  c #211414",
"y  c #251717",
"u  c #231918",
"i  c #241919",
"p  c #2A1919",
"a  c #281D1D",
"s  c #2E1E1D",
"d  c #3C1B15",
"f  c #3D1C16",
"g  c #321B1B",
"h  c #3C2F2F",
"j  c #2A3637",
"k  c #432019",
"l  c #46221B",
"z  c #46251B",
"x  c #49241D",
"c  c #4A251E",
"v  c #4B251E",
"b  c #422D2D",
"n  c #502921",
"m  c #522A22",
"M  c #532B23",
"N  c #572E25",
"B  c #5C3128",
"V  c #5C352C",
"C  c #4F3837",
"Z  c #5F3D31",
"A  c #61342B",
"S  c #65372D",
"D  c #67392F",
"F  c #613C2F",
"G  c #643C31",
"H  c #683F33",
"J  c #6D3C32",
"K  c #6D3E33",
"L  c #693F34",
"P  c #6F3E34",
"I  c #6F3F34",
"U  c #59403F",
"Y  c #6D4034",
"T  c #714035",
"R  c #724035",
"E  c #724036",
"W  c #734136",
"Q  c #734636",
"!  c #344648",
"~  c #574141",
"^  c #7A5958",
"/  c #456164",
"(  c #4F6C6F",
")  c #506C6F",
"_  c #965C5B",
"`  c #836060",
"'  c #836160",
"]  c #886464",
"[  c #957272",
"{  c #937B7B",
"}  c #957F7F",
"|  c #9E7978",
" . c #A36463",
".. c #AE6F6D",
"X. c #AE7674",
"o. c #A07C7C",
"O. c #B97371",
"+. c #BC7876",
"@. c #659499",
"#. c #669599",
"$. c #67969A",
"%. c #67969B",
"&. c #69979B",
"*. c #69979C",
"=. c #7BA9AD",
"-. c #7AA9AE",
";. c #B58685",
":. c #B68786",
">. c #B68887",
",. c #B78A89",
"<. c #BB8B8A",
"1. c #B98C8B",
"2. c #BF908F",
"3. c #B19998",
"4. c #BF9C9B",
"5. c #80AEB2",
"6. c #80AEB3",
"7. c #B3A2A3",
"8. c #B9A0A0",
"9. c #BAA1A0",
"0. c #BCABAC",
"q. c #C38785",
"w. c #C59493",
"e. c #CA9291",
"r. c #C89796",
"t. c #CC9796",
"y. c #C99897",
"u. c #C09E9D",
"i. c #CD9A99",
"p. c #CF9C9B",
"a. c #CF9D9C",
"s. c #C7ADAC",
"d. c #C8AEAD",
"f. c #D2A1A0",
"g. c #D2A3A2",
"h. c #D3A4A3",
"j. c #D4A7A6",
"k. c #D5A9A8",
"l. c #D5AAA9",
"z. c #D5ABAA",
"x. c #D8AFAE",
"c. c #CBB0AF",
"v. c #D9B0AF",
"b. c #C0B2B3",
"n. c #CDB2B1",
"m. c #C3B8B9",
"M. c #DAB5B4",
"N. c #DBB6B5",
"B. c #DCB7B6",
"V. c #DBBFBE",
"C. c #DFBEBD",
"Z. c #DFC0BF",
"A. c #E0C0BF",
"S. c #95BCC0",
"D. c #94BDC1",
"F. c #9BC7CB",
"G. c #9DC7CB",
"H. c #9CC8CC",
"J. c #9CC8CD",
"K. c #CAC7C7",
"L. c #CAC7C8",
"P. c #DDC1C0",
"I. c #DFC3C2",
"U. c #E0C1C0",
"Y. c #E1C1C0",
"T. c #E1C4C3",
"R. c #E2C4C3",
"E. c #E2C5C4",
"W. c #E3C5C4",
"Q. c #E3C6C5",
"!. c #FAF9F9",
"~. c gray98",
"^. c #FBFBFB",
"/. c #FEFEFE",
"(. c white",
/* pixels */
"F W W W W W W W W W W W W W W W W W W W W W W W W W W W W W W W W W W W W W W W W W W W W W W W W W W W W W W W W W W W ",
"F W W W W W W W W W W W W W W W W W W W W W W W W W W W W W W W W W W W W W W W W W W W W W W W W W W W W W W W W W W W ",
"F W W W W W W W W W W W W W W W W W W W W W W W W W W W W W W W W W W W W W W W W W W W W W W W W W W W W W W W W W W W ",
"F F W W W W W W W W W W W W W W W W W W W W W W W W W W W W W W W W W W W W W W W W W W W W W W W W W W W W W W W W W W ",
"F W W W W W W W W W W W W W W W W W W W W W W W W Q W W W W W W W W W W W W W W W W W W W W W W W W W W W W W W W W W W ",
"F W W W W W W W W W W W W W W W W W W W W W W W <                     < W W W W W W W W W W W W W W W W W W W W W W W W ",
"W F W W W W W W W W W W W W W W W W W W W x w w %                     % w w x W W W W W W W W W W W W W W W W W W W W W ",
"F W W W W W W W W W W W W W W W W W E T T w     & & & & & & & & & & & &     w T T E W W W W W W W W W W W W W W W W W W ",
"F F W W W W W W W W W W W W W W W W n           >.p.p.p.p.p.p.p.p.p.p.>.          n W W W W W W W W W W W W W W W W W W ",
"F W W W W W W W W W W W W W W W W < =     ^ 1.c.Z.Y.Y.Y.Y.Y.Y.Y.Y.Y.Y.Z.c.1.^     = < W W W W W W W W W W W W W W W W W ",
"F W W W W W W W W W W W W W W T S O 2 y a [ g.Q.Q.Q.Q.Q.Q.Q.Q.Q.Q.Q.Q.Q.Q.g.[ a y 2 O S T W W W W W W W W W W W W W W W ",
"F W W W W W W W W W W W W W W D     C p.Q.Q.Q.Q.Q.Q.Q.Q.Q.Q.Q.Q.Q.Q.Q.Q.Q.Q.Q.Q.p.C     D W W W W W W W W W W W W W W W ",
"F W W W W W W W W W W W W W 1 O   y.l.Q.Q.Q.Q.Q.Q.Q.Q.Q.Q.Q.Q.Q.Q.Q.Q.Q.Q.Q.Q.Q.Q.l.y.  O 1 W W W W W W W W W W W W W W ",
"F W W W W W W W W W W W E v = 2 U z.N.Q.Q.Q.Q.Q.Q.Q.Q.Q.Q.Q.Q.Q.Q.Q.Q.Q.Q.Q.Q.Q.Q.N.z.U 2 = v E W W W W W W W W W W W W ",
"W H H H H H Q W W W W Q T     t p.W.Q.Q.Q.Q.Q.Q.Q.Q.Q.Q.Q.Q.Q.Q.Q.Q.Q.Q.Q.Q.Q.Q.Q.Q.W.p.t     T W W W W W W W W W W W W ",
"F W W W H H H H W W W W T     i Q.Q.Q.Q.Q.Q.Q.Q.Q.Q.Q.Q.Q.Q.Q.Q.Q.Q.Q.Q.Q.Q.Q.Q.Q.Q.Q.Q.i     T W W W W W W W W W W W W ",
"W W W H W W W W W W Q z 0   ` | Q.Q.Q.Q.Q.Q.Q.Q.Q.Q.Q.Q.Q.Q.Q.Q.Q.Q.Q.Q.Q.Q.Q.Q.Q.Q.Q.Q.| `   0 l W W W W W W W W W W W ",
"F W W W W W W W W W W e     ,.g.Q.Q.Q.Q.Q.Q.Q.Q.Q.Q.Q.Q.Q.Q.Q.Q.Q.Q.Q.Q.Q.Q.Q.Q.Q.Q.Q.Q.g.,.    e W W W W W W W W W W W ",
"W W W W W W W W W W W e     s.Q.Q.Q.Q.Q.Q.Q.Q.Q.Q.Q.Q.Q.Q.Q.Q.Q.Q.Q.Q.Q.Q.Q.Q.Q.Q.Q.Q.Q.Q.s.    e W W W W W W W W W W W ",
"F W W W W W W W W W - # @ 2.Z.Q.Q.Q.Q.Q.Q.Q.Q.Q.Q.Q.Q.Q.Q.Q.Q.Q.Q.Q.Q.Q.Q.Q.Q.Q.Q.Q.Q.Q.Q.Z.2.@ # - W W W W W W W Y Y W ",
"W W W W W W W W W W     @ p.U.W.C.9.8.8.8.8.9.C.W.Q.Q.Q.Q.Q.Q.Q.Q.Q.Q.W.C.9.8.8.8.8.9.C.W.U.p.@     W W W W W W W W W W ",
"F W W W W W W W W W     @ p.U.U.p.@         @ p.U.Q.Q.Q.Q.Q.Q.Q.Q.Q.Q.U.p.@         @ p.U.U.p.@     W W W W W W W W W W ",
"F F W W W W W W W W     @ p.U.s.o !././.      o s.Q.Q.Q.Q.Q.Q.Q.Q.Q.Q.s.o !././.      o s.U.p.@     W W W W W W W W W W ",
"F W W W W W W W W W     @ p.x.4.  ^.(.(.        s.Q.Q.Q.Q.Q.Q.Q.Q.Q.Q.s.  ^.(.(.        4.x.p.@     W W W W W W W W W W ",
"F F W W W W W W W W     @ p.p.>.  ~.(.(.        s.Q.Q.Q.Q.Q.Q.Q.Q.Q.Q.s.  ~.(.(.        >.p.p.@     W W W W W W W W W W ",
"F W W W W W W W W W     + O.t.>.                s.Q.Q.&         & Q.Q.s.                >.t.O.+     Y W W W W W W W W W ",
"F F W W W W W W W W B 9   g <.>.                s.n.h X         X h n.s.                >.<.g   9 B W W W W W W W W W W ",
"F W W W W W W W W W W e     ;.:.3             3 d.s.  4 4 4 4 4 4   s.d.3             3 :.;.    e W W W W W W W W W W W ",
"W F W W W W W W W W W e      .+.p.@         @ p.U.s.  ^.(.(.(.(.^.  s.U.p.@         @ p.+. .    e W W W W W W W W W W W ",
"F W W W W W W W W W W I J   , p p.S.D.D.D.7.w.R.Q.s.  4 4 4 4 4 4   s.Q.R.w.7.D.D.D.S.p.p ,   J I W W W W W W W W W W W ",
"W F W W W W W W W W W W T     r e.G.H.H.H.b.j.Q.Q.n.h h h h h h h h n.Q.Q.j.b.H.H.H.G.e.r     T W W W W W W W W W W W W ",
"F W W W W W W W W W W W T     5 O.G.J.J.J.L.Q.Q.Q.Q.Q.Q.Q.Q.Q.Q.Q.Q.Q.Q.Q.Q.L.J.J.J.G.O.5     T W W W W W W W W W W W W ",
"W F W W W W W W W W W W W W <     #.=.H.J.L.Q.Q.Q.Q.Q.Q.Q.Q.Q.Q.Q.Q.Q.Q.Q.Q.K.H.J.-.@.    < W W W W W W W W W W W W W W ",
"F W W W W W W W W W W W W W c f   ! ) 6.H.m.v.Q.Q.Q.Q.Q.Q.Q.Q.Q.Q.Q.Q.Q.Q.v.m.H.5.( !   f c W W W W W W W W W W W W W W ",
"F W W W W W W W W W W W W W W D .   j %.F.0.a.Q.Q.Q.Q.Q.Q.Q.Q.Q.Q.Q.Q.Q.Q.a.0.F.$.j   . D W W W W W W W W W W W W W W W ",
"W W W W W W W W W W W W W W W W W O       / &.p.U.Q.Q.Q.Q.Q.Q.Q.Q.Q.Q.U.p.*./       O W W W W W W W W W W W W W W W W W ",
"F W W W W W W W W W W W W W W W W A k     6 7 s X.q.h.h.h.h.h.h.h.h.q.X.s 8 6     k A W W W W W W W W W W W W W W W W W ",
"W W W W W W W W W W W W W W W W W W M -         _ ..2.2.2.2.2.2.2.2..._         - M W W W W W W W W W W W W W W W W W W ",
"F W W W W W W W W W W W W W W W W W W W                                         W W W W W W W W W W W W W W W W W W W W ",
"W W W W W W W W W W W W W W W W W W m $   ' r.V.u                     u V.r.'   $ m W W W W W W W W W W W W W W W W W W ",
"F W W W W W W W W W W W W W W W W N d   b o.k.Q.~ b b b b b b b b b b ~ Q.k.o.b   d N W W W W W W W W W W W W W W W W W ",
"W W W W W W W W W W W W W W W W W O     p.B.Q.Q.f.p.p.p.p.p.p.p.p.p.p.f.Q.Q.B.p.    O W W W W W W W W W W W W W W W W W ",
"W W W W W W W W W W W W W W W W W O     p.B.I.  >.f.Q.Q.Q.Q.Q.Q.Q.Q.f.>.  I.B.p.    O W W W W W W W W W W W W W W W W W ",
"F W W W W W W W W W W W W W W W W O     p.B.I.  u.B.Q.Q.Q.Q.Q.Q.Q.Q.B.u.  I.B.p.    O W W W W W W W W W W W W W W W W W ",
"W W W W W W W W W W W W W W W W W # .   i.M.P.  s.Q.Q.Q.E.T.T.E.Q.Q.Q.s.  P.M.i.  . # W L L L L W W W W W W W W W W W W ",
"W W W W W W W W W W W W W W W W W W n           s.Q.Q.a.]     ] a.Q.Q.s.          n L Z Z Z Z L L L W W W W W W W W W W ",
"F W W W W W W W W W W W W W W W W W K S         s.Q.Q.A.{     ] a.Q.Q.s.        V G Z Z Z Z Z Z W W W Z Z L L L W W W W ",
"W F W W W W W W W W W W W W W W W W W W : $     3.n.Q.Q.}     ] a.Q.n.3.    # ; L Z Z Z Z Z Z Z L L Z Z Z Z L L L W W W ",
"F W W W W W W W W W W W W W W W W W W W W e       i Q.Q.}     ] a.Q.i       q L L Z Z Z Z Z Z Z L L L Z Z L W W W W W W ",
"F F W W W W W W W W W W W W W W W W W W W T P       * * @     + & *       P T L L Z Z Z Z Z Z Z Z L L W W W W W W W W W ",
"F W W W W W W W W W H W Q W W W W W W W W W R w %       > w w >       % w R W L L L Z Z Z Z Z Z L L L L W W W W W L L W ",
"F F W W W W W W W W W W W W W W W W W W W W W W <       e W W e       < W W W W W W L L Z Z L L L L L L W W W W W W W W ",
"F W W W W W W W W W W W W W W W W W W W W W W W W W W W W W W W W W W W W W W W W W W W W L W W W W W W W W W W W W W W ",
"F F W W W W W W W W W W W W W W W W W W W W W W W W W W W W W W W W W W W W W W W W W W W W W W W W W W W W W W W W W W ",
"F W W W W W W W W W W W W W W W W W W W W W W W W W W W W W W W W W W W W W W W W W W W W W W W W W W W W W W W W W W W ",
"F F W W W W W W W W W W W W W W W W W W W W W W W W W W W W W W W W W W W W W W W W W W W W W W W W W W W W W W W W W W ",
"F W W W W W W W W W W W W W W W W W W W W W W W W W W W W W W W W H H W W W W W W W W W W W W W W W W W W W W W W W W W ",
"W W W W W W W W W W W W W W W W W W W W W W W W W W W W H H H H H W W H W W H H H W W W W W W W W W W W W W W W Y Y Y Y ",
"F W W W W W W W W W W W W W W W W W W W W W W W W W W W W W W W H H H W W W W W W W W W W W W W W W W W W W W W W W W W ",
"W W W W W W W W W W W W W W W W W W W W W W W W W W W W W W W W W W W W W W W W W W W W W W W W W W W W Y Y Y Y Y Y Y Y "
};
