/* XPM */
static char *result[] = {
/* columns rows colors chars-per-pixel */
"60 60 206 2 ",
"   c #0D170F",
".  c #16150C",
"X  c #031617",
"o  c #0E1711",
"O  c #0C1816",
"+  c #05161D",
"@  c #0B171B",
"#  c #051A1D",
"$  c #0B1A1C",
"%  c #131414",
"&  c #1A1412",
"*  c #15161C",
"=  c #19161A",
"-  c #141A1E",
";  c #1B1A1D",
":  c #220F0D",
">  c #2E0E0E",
",  c #310F0E",
"<  c #3D0F0C",
"1  c #21130D",
"2  c #2D100E",
"3  c #33110E",
"4  c #3B110D",
"5  c #34180E",
"6  c #2E0E11",
"7  c #310E12",
"8  c #3B0F13",
"9  c #231213",
"0  c #2C1112",
"q  c #2D1916",
"w  c #241519",
"e  c #29171C",
"r  c #2A1C1E",
"t  c #341313",
"y  c #3A1414",
"u  c #371A15",
"i  c #391917",
"p  c #35161A",
"a  c #38141A",
"s  c #341A1B",
"d  c #3C1C1C",
"f  c #1C2017",
"g  c #10221F",
"h  c #2A211F",
"j  c #32211D",
"k  c #3D221E",
"l  c #031720",
"z  c #041C23",
"x  c #0B1C24",
"c  c #031E29",
"v  c #0A1F29",
"b  c #141620",
"n  c #1B1620",
"m  c #131D22",
"M  c #1C1D22",
"N  c #241320",
"B  c #271A20",
"V  c #2A1C22",
"C  c #341D25",
"Z  c #3D1E21",
"A  c #022125",
"S  c #0A2125",
"D  c #04222A",
"F  c #0B2229",
"G  c #0F2B2E",
"H  c #132325",
"J  c #1D2425",
"K  c #162B26",
"L  c #14242B",
"P  c #1A252C",
"I  c #13292C",
"U  c #1B2A2D",
"Y  c #17312D",
"T  c #192632",
"R  c #122C32",
"E  c #1D2C32",
"W  c #1B3234",
"Q  c #1C343A",
"!  c #232424",
"~  c #2A2222",
"^  c #2D2927",
"/  c #242529",
"(  c #2A252B",
")  c #232B2C",
"_  c #2C2B2C",
"`  c #352525",
"'  c #3E2424",
"]  c #362B27",
"[  c #392A27",
"{  c #36262A",
"}  c #392729",
"|  c #332B2D",
" . c #3A2A29",
".. c #24312E",
"X. c #31302F",
"o. c #242E32",
"O. c #292E32",
"+. c #372731",
"@. c #392733",
"#. c #352B31",
"$. c #3A2932",
"%. c #233133",
"&. c #2C3335",
"*. c #2D3937",
"=. c #26353A",
"-. c #2C343A",
";. c #25393E",
":. c #2C393D",
">. c #313436",
",. c #33363A",
"<. c #38363C",
"1. c #353A3C",
"2. c #393B3E",
"3. c #4E0D0D",
"4. c #45130B",
"5. c #4C110F",
"6. c #54120D",
"7. c #59160F",
"8. c #4D0F13",
"9. c #4D1111",
"0. c #4D1B16",
"q. c #421D1D",
"w. c #561413",
"e. c #5A1413",
"r. c #531A14",
"t. c #581B17",
"y. c #581418",
"u. c #561B1B",
"i. c #43221D",
"p. c #4C231D",
"a. c #4A281F",
"s. c #5E221C",
"d. c #5D281F",
"f. c #61211D",
"g. c #411F28",
"h. c #442523",
"j. c #482623",
"k. c #462A25",
"l. c #4C2C25",
"z. c #452529",
"x. c #482728",
"c. c #442A2A",
"v. c #4C2D2A",
"b. c #502E26",
"n. c #5B2924",
"m. c #512E2A",
"M. c #4F3026",
"N. c #47312F",
"B. c #4E322D",
"V. c #533227",
"C. c #5E3227",
"Z. c #54342C",
"A. c #5A342C",
"S. c #56382D",
"D. c #5A392F",
"F. c #462D32",
"G. c #473231",
"H. c #4A3532",
"J. c #4D3833",
"K. c #413C3C",
"L. c #4B3B3D",
"P. c #543532",
"I. c #5C3531",
"U. c #553933",
"Y. c #5B3933",
"T. c #5F3738",
"R. c #5A3C3A",
"E. c #672D2D",
"W. c #61362E",
"Q. c #68342C",
"!. c #613C2F",
"~. c #69392F",
"^. c #613631",
"/. c #683233",
"(. c #643A32",
"). c #683F33",
"_. c #613738",
"`. c #623838",
"'. c #6D4034",
"]. c #734136",
"[. c #243D42",
"{. c #2D3B43",
"}. c #333C42",
"|. c #3A3D43",
" X c #2E484F",
".X c #3D4144",
"XX c #344348",
"oX c #3C4249",
"OX c #3F4650",
"+X c #414144",
"@X c #40454A",
"#X c #484548",
"$X c #444A4D",
"%X c #4C4C4E",
"&X c #454C51",
"*X c #4B4E53",
"=X c #4B4F59",
"-X c #504F52",
";X c #4E5255",
":X c #515254",
">X c #575759",
",X c #5B585B",
"<X c #465961",
"1X c #535B63",
"2X c #5A5D63",
"3X c #676669",
/* pixels */
"!.].].].].].].].].].].].].].].].].].].].].].].].].].].].].].].].].].].].].].].].].].].].].].].].].].].].].].].].].].].].",
"!.].].].].].].].].].].].].].].].].].].].].].].].].].].].].].].].].].].].].].].].].].].].].].].].].].].].].].].].].].].].",
"!.].].].].].].].].].].].].].].].].].].].].].].].].].].].].].].].].].].].].].].].].].].].].].].].].].].].].].].].].].].].",
"!.!.].].].].].].].].].).].].].].].].].].].].].].].].].].].].].].].].].].].].].].].].].].].].].].].].].].].].].].].].].].",
"!.].].].].].].].).].].).].].].].].].].].].].].].].].].].].].].].].].].].].].].].].].].].].].].].].].].).].].].].].].].].",
"!.].].].].9.5.5.8.8.w.8.8.9.n.m.m.E.b.l.b.l.l.l.M.M.V.M.M.V.V.l.b.V.b.b.M.M.M.l.b.p.4.5.5.9.8.3.3.3.8.3.3.r.].].].].].].",
"].!.].].].5.4.4.y t 4 8 8 a '  .' } [ [ [ [ [  .[ [  . .[ [ [  . . . . .] ] ] ] [ j q q t t y < < 4 t < 4.0.].].].].].].",
"!.].].].].3.4 & o   . : & @ @ + @ @ $ # # # + $ z # + z $ x l z l z z l l # l z + + z + # # O 9 & o   : < 0.].].].].].].",
"!.!.].].].8.0 O O.&.%.O J ,.$X<.1.$XH S O.$X|.&.$X*X$X&.=.=.P o.=.&.-.o.P I x x o.E &.$X*X:.X + H ..&.f : r.).].].].].].",
"!.].].].].u.r $ -.}.=.+ o.+X-XK.K.:XJ H <.%X#X2.%X%X%X,.>.>._ &.>.>.>.-.) %.x z ;.&.,.:X;X1.X z H *.,.P & j.].].].].].].",
"!.].].].].A.] @ o.o.E # / }.|.O.X.>.$ m &.,.<.,.%._ o.o.O.o.o.o.W %.E o.%.W H z o.O.X.,.2.%.+ # S U o.H & m.].].].].].].",
"!.].].].).Z.m. .v x z + T -.-.o.%.&.x + b x x x z # # z # # # # # # # z z z z x o.o.%.&.=.U + z # x @ ~ M.n.].].].].].].",
"!.].].].].V.A.N.x x P U I L L L L P M B M % = M ; J ; M * * / ! ; ; ; ; * M b b v I m T F S + H P U + V V.V.].].].].].].",
"!.].].].].V.m.G.x L *.2.T l x @ @ ; `  .' 9 q ' ' h.z.' t t P.x.h.h.h.p 6 Z p & b b x x # # # / >.}.x ` V.m.].].].].].].",
"].'.'.'.).V.m.v.x E |.>.H @ ` ' ' B.H.Z.B.0 q h.Z.Z.B.i.2 t Z.v.V.Z.i.i.k i.t 0 ` k d d k J # ! >.}.x ~ V.A.).].].].].].",
"!.].'.].).V.A.N.x T }.O.H * ' j.M.B.Z.Z.B.2 t h.B.Z.B.h.2 3 V.Z.V.a.a.l.x.k t : k l.l.l.M._ X ) >.,.x ` V.V.].].].].].].",
"].].].).).A.A.N.x E @X,.H * h.v.B.Z.Z.P.H., t h.Z.A.Z.h.> 3 Z.Z.M.i.V.Z.B.h.t 0 k k.S.V.P._ X ) #.[.x ` m.C.].].].].].].",
").].].].).m.A.N.x {.2X.XU - ' l.Z.B.Z.Z.Z.> t h.V.Z.v.i.> t Z.Z.Z.V.V.Z.B.k.p 2 k v.A.S.P.| $ ) O.o.z ` A.W.].].].].].].",
").].].].).E.A.F.x {.2XoXU * ' v.Z.B.Z.P.P., t h.Z.A.Z.h.3 4 Z.V.S.Z.S.V.M.k.p 0 ` M.Z.Z.P._ @ ) >.;.x ` A.C.].].].].].].",
").].].].).A.A.N.x ;.:X|.U * ' l.Z.Z.Z.B.v.3 t h.m.A.v.h.t 5 Z.Z.V.Z.Z.Z.M.c.p 6 ' M.Z.Z.U.#.# ) ,.}.v ' A.m.].].].'.'.].",
").].].].).^.A.H.x E .X-.H - z.Z.P.P.Z.v.h., p h.Z.A.v.h.t y Z.Z.Z.V.S.V.Z.x.a 7 q.B.S.Z.P.| z ) <.|.x ` A.A.).).].].].].",
"~.].].].).A.A.H.x {.2X.XU - ' B.S.P.S.b.i., Z P.Z.Z.Z.Z.u 5 S.V.S.V.Z.Z.B.j.a , h.m.S.S.S._ z ) <.|.x ` C.A.].].].].].].",
"(.).].].].A.A.G.x ;.;X2.P - ' m.S.P.S.m.h., Z P.Z.A.P.P.y 5 l.Z.V.Z.Z.Z.Z.h.a 7 h.m.S.V.U._ z %.1.}.v ` A.A.].].].].].].",
"~.].].].].Z.A.G.x E |.-.L - ' B.Z.P.Z.v.i.t h.P.Z.V.S.P.i 3 i.b.S.Z.Z.V.Z.c.a 7 h.Z.S.S.A.X.z o.,.}.x ` C.V.].].].].].].",
"!.!.].].].A.A.H.x E .X-.P - ' Z.S.P.P.m.h.7 h.P.I.Z.S.P.d 3 i.Z.A.S.S.S.Z.h.a 7 H.S.S.S.A._ z _ >.=.x ` A.V.].].].].].].",
"!.].].].].S.A.H.x T <.-.L - ' B.I.S.U.v.h.7 Z U.S.A.S.U.d 7 h.Z.U.U.S.S.S.z.y t Z.S.S.A.S.&.z o.&.&.x ] A.A.].].].].].].",
"!.!.].].).A.A.H.x T >.-.L - ' Z.P.I.I.Z.h.7 Z U.S.S.Z.S.d 7 h.Z.U.S.S.V.Z.h.a 3 Z.S.S.A.U.X.# O.>.=.x ` A.C.].].].].].].",
"!.].].].].A.A.H.x L >.-.I * ' V.U.U.P.Z.z.7 i.U.A.S.S.Y.d 7 h.P.U.S.S.S.V.l.a t V.S.S.A.Y.X.z %.,.}.x { A.A.].].].].].].",
"].).].].].A.^.H.v E 2.,.L - ' v.I.U.U.V.j.7 d U.S.A.I.P.a t z.Z.S.S.Z.S.V.j.a 7 S.A.S.S.S.X.z ) 1.}.x { W.I.].].].].].].",
"!.].].].].Q.I.H.v E |.,.I - ' Z.U.P.I.b.d a h.A.S.S.U.R.h.t d B.S.S.U.S.V.j.a 8 S.P.S.A.Y.X.# %.1.}.x  .W.n.].].].].].].",
"].!.].].].A.I.H.x E .X-.L - ' Z.Y.U.U.j.> h.B.D.U.S.U.U.c.Z > x.S.S.S.S.S.k.a 7 U.S.U.S.S.X.z o.1.}.x { W.r.].].].].].].",
"!.].].].].A.I.H.x o.+X*.G - z.Z.Y.Y.Y.j.> z.B.U.Y.U.J. .V = % ] N.U.P.S.S.z.Z t U.Y.D.D.U.X.# O.1.XXx { ^.C.].].].].].].",
"].!.].].].S.A.H.v o.+X=.I m ' S.Y.Y.Y.l.> z.v.U.U.G. .! >..X2._ ` B.S.S.S.P.Z 7 P.Y.U.D.D.X.# %.1.}.v ] ^.A.].].].].].].",
"!.].].].].A.A.J.v o.+X=.I - ' P.`.Y.(.x.> ' H.U.U.F.( $ $X3X3XU ; k.N.U.U.R.g.a P.R.Y.D.Y.X.# O.}.|.x  .W.W.].].].].].].",
"!.].].].].A.I.L.v o.|.,.L m ' P.Y.Y.D.l.> h.v.J.$./ S # *.$XoXK X $ _ N.R.R.g.7 U.Y.P.D.U.X.z %.2.|.x { C.r.].].].].].].",
"].].].].].A.A.H.v T |.2.I m ' A.`.U.(.x.2 h.v.c.M [. Xz %.}.}.F H &.P ] P.U.i.7 H.I.U.Y.U.X.# %.1.|.x  .W.d.].].].].].].",
"!.].].].].A.I.P.m P <.|.E - [ Z.Y.Y.I.k.2 z.z.{ U &X<Xc L o.%.S U .XU / c.U.q.7 x.Z.D.D.S._ A W <.}.x } W.W.].].].].].].",
"].].].].].A.^.J.v T <.+XE - ' P.`.U.v.Z > h.! m 2X&Xo.x z x x l P }.XXQ -  .C 0 z.Z.(.!.l.h z ..>.>.x { W.W.].].].].].].",
"!.].].].].A.^.P.m T 2.2.U - ' I.Y.R.v.d > h.! x &X-.n n n n b b m H ;.E x c.s 0 x.P.Y.D.S._ # W <.}.x [ !.W.].].].].].].",
"].].].].].!.^.H.x o.2.=.F m ' P.Y.R.v.d 2 k./ m }.-./ n V V N n m I -.R $  .d 6 z.A.Y.Y.S._ A ..1.|.v  .^.W.].].].].].].",
"(.].].].).Q.W.J.x I %.S A g z.Z.Y.T.v.d > P.#.b {.|.|.m o.C n b E oX;.U - [ u , j.m.Y.I.m.! # ..2.oXx { !.W.].].].].].].",
"].].].].].t.t.q.x P ..z A - h.Z.T.U.v.' 6 P.$.w n {.|.2XO.x x ,.|.:.P M e z.u 3 j.A.Y.I.v./ # W 2.@Xx  .^.W.].].].].].].",
"].].].].].e.e.i $ U 1.W D m z.A.Y.T.v.d 7 P.N.C w n =.=XOX{.U |.,.U ; s j.j.u 3 z.m._.T.B.! # W ,.}.A  .(.Q.].].].].].].",
"~.].].].).e.w.i g %..X1.I m z.Z.I.I.m.q., P.P.z.a n b o.<X1X-.=.U $ 1 z.R.x.u 2 h.A._._.N.) # ..-.=.x ] (.!.].].].].].].",
"].].].].].6.u.J.S %..X1.G m c.P.I.Y.v.d , x.P.T.z.C * l F F v z - 9 ' k.c.k.u 3 z.I.`.`.M./ # %.*.=.A  .).D.].].].].].].",
"].].].].].n.A.L.H E }.E F m c.m.m.H.v.Z , z.v.H.v.g.+.V ( ( ( ( ( d k.k.k.c.u 3 h.m.m.m.c./ $ %.*.=.x  .(.).].].].].].].",
"!.].].].].(.`.L.F I Q v c v | | | { +.V 9 { { +.+.@.@.@.@.@.#.#.$.{ } { { { r w { { { ` ] P z W W W S  .(.!.'.Y.].].].].",
"].~.].].].(.Y.L.F z x z c c x x b x z z z z z c c v c c c c x A c c c D A A v c c c D A # A z z z z #  .(.W.'.'.'.].].].",
"!.].].].].!.B.J o.[.{.l {.<X:.*X*X1.:.;.W W W W W [.[.W Q ;.,.,.}.,.,.}.{.=.-.,.W W W W o.W Q c L =.:...h (.].].].].].].",
"D.'.].].].Q.} x -.}.{.v }.-X.X>X,X+X.X1.%.W Y W W ;.;.E R =..X|..X.X.X.X2.,.2.XXW W E %.:.;.W D T }.oXY f (.].].].'.].].",
"D.].].].].e.p x =.;.Q D v x {.}.}.:.=.W A A A A A A A A z F ;.=.=.=.=.%.;.%.=.W A z v c {.[.A A R [.-.K f (.].].].'.'.].",
"'.D.].].].e.4.1 F D D D c z D D D D D D A A A A c A A z A A S S S S S S S S S A z z c c D D A A c c v & 5 A.].].].].].].",
"!.].].].].e.6.4.u r B V B B B ^ / V ~ V ~ ~ V ~ h r h h r ~ h ~ h h ^ ^ ^ ^ ^ ^ _ | ( #.( _ _ ) _ _ _ i.a.D.].].].].].].",
"!.!.].].].7.7.7.e.e.y.y.y.y.y.E./.E.t.f.f.f.s.f.s.s.s.s.s.s.d.d.d.f.Q.~.~.~.!.!.(.(.(.(.(.(.).'.!.Y.).).(.Q.].].].].].].",
"!.].].].].].].].].].].].).].].].].].].].].].].].].].].].].].].].].].].].].].].].].].].].].].].].].].].].].].].].].].].].",
"~.!.].].].].].].].].].].].].].].].].].].].].].].].].].].].].].].].].].].].].].].].].].].].].].].].].].].].].].].].].].].",
"!.].].].].].].].].].].].].].].].].].].].].].].].].].].].'.].].'.].'.'.'.].].].'.].].].].].].].].].].].].].].].].].].].].",
"].].].].].].].].].].].].].].].].].].].].].].].].].].].].'.'.'.).'.].'.'.].].'.'.'.'.].].].].].].].].].].].].].].'.'.'.'.",
"!.].].].].].].].].].].].].].].].].].].].].].].].].].].].].].].].'.'.'.'.].].].].].].].].].].].].].].].].].].].].].].].].",
"].].].].].].].].].].].].].].].].].].].].].].].].].].].].].].].].'.].].].].].].'.].].].].].].].].].].].].'.'.'.'.'.'.'.'."
};
